0
SECTION
2
HEADER
9
$INSUNITS
70
1
9
$ACADVER
1
AC1014
9
$HANDSEED
5
FFFF
0
ENDSEC
0
SECTION
2
TABLES
0
TABLE
2
VPORT
5
8
100
AcDbSymbolTable
0
ENDTAB
0
TABLE
2
LTYPE
5
5
100
AcDbSymbolTable
0
LTYPE
5
14
100
AcDbSymbolTableRecord
100
AcDbLinetypeTableRecord
2
BYBLOCK
70
0
0
LTYPE
5
15
100
AcDbSymbolTableRecord
100
AcDbLinetypeTableRecord
2
BYLAYER
70
0
0
ENDTAB
0
TABLE
2
LAYER
5
2
100
AcDbSymbolTable
70
2
0
LAYER
5
50
100
AcDbSymbolTableRecord
100
AcDbLayerTableRecord
2
0
70
0
6
CONTINUOUS
0
ENDTAB
0
TABLE
2
STYLE
5
3
100
AcDbSymbolTable
70
1
0
STYLE
5
11
100
AcDbSymbolTableRecord
100
AcDbTextStyleTableRecord
2
STANDARD
70
0
0
ENDTAB
0
TABLE
2
VIEW
5
6
100
AcDbSymbolTable
70
0
0
ENDTAB
0
TABLE
2
UCS
5
7
100
AcDbSymbolTable
70
0
0
ENDTAB
0
TABLE
2
APPID
5
9
100
AcDbSymbolTable
70
2
0
APPID
5
12
100
AcDbSymbolTableRecord
100
AcDbRegAppTableRecord
2
ACAD
70
0
0
ENDTAB
0
TABLE
2
DIMSTYLE
5
A
100
AcDbSymbolTable
70
1
0
ENDTAB
0
TABLE
2
BLOCK_RECORD
5
1
100
AcDbSymbolTable
70
1
0
BLOCK_RECORD
5
1F
100
AcDbSymbolTableRecord
100
AcDbBlockTableRecord
2
*MODEL_SPACE
0
BLOCK_RECORD
5
1B
100
AcDbSymbolTableRecord
100
AcDbBlockTableRecord
2
*PAPER_SPACE
0
ENDTAB
0
ENDSEC
0
SECTION
2
BLOCKS
0
BLOCK
5
20
100
AcDbEntity
100
AcDbBlockBegin
2
*MODEL_SPACE
0
ENDBLK
5
21
100
AcDbEntity
100
AcDbBlockEnd
0
BLOCK
5
1C
100
AcDbEntity
100
AcDbBlockBegin
2
*PAPER_SPACE
0
ENDBLK
5
1D
100
AcDbEntity
100
AcDbBlockEnd
0
ENDSEC
0
SECTION
2
ENTITIES
0
LWPOLYLINE
5
100
100
AcDbEntity
8
0
100
AcDbPolyline
90
29
70
1
43
0.0
10
249.65807086614174
20
18.64510760936064
10
254.06141732283464
20
18.645107609360657
42
-0.41421356237330809
10
254.16141732283464
20
18.545107609360667
10
254.16141732283464
20
16.851928412480163
42
0.29246856529134946
10
254.21948820524435
20
16.761143231431163
10
255.42958228135976
20
16.202261525997521
42
-0.2924685652913418
10
255.48765316376947
20
16.111476344948521
10
255.48765316376941
20
14.464181902961665
42
-0.60185985003569198
10
255.33149076001874
20
14.381442647436028
10
254.47286347566492
20
14.964268440451924
42
0.098505787626532199
10
254.43691984424191
20
14.979463863388798
10
253.49274656255517
20
15.174389960253151
42
0.025986500914334357
10
253.4824781621295
20
15.175959000811611
10
252.49261597355951
20
15.274945219668613
42
0.024922321135509764
10
252.48266560165743
20
15.27544150064762
10
251.73765316376947
20
15.275441500647622
10
250.9926407258815
20
15.275441500647622
42
0.024922321136631519
10
250.98269035397939
20
15.274945219668615
10
249.99282816540943
20
15.175959000811615
42
0.025986500913004487
10
249.98255976498376
20
15.17438996025315
10
249.03838648329702
20
14.979463863388792
42
0.098505787626478603
10
249.00244285187401
20
14.964268440451924
10
248.14381556752019
20
14.381442647436014
42
-0.60185985003569198
10
247.98765316376947
20
14.464181902961665
10
247.98765316376947
20
16.107107965193183
42
-0.30903707656843227
10
248.05131560569174
20
16.200272238779927
10
249.49440842421944
20
16.763132518648735
42
0.30903707656814383
10
249.55807086614169
20
16.856296792235486
10
249.55807086614172
20
18.545107609360674
42
-0.41421356237323431
0
CIRCLE
5
101
100
AcDbEntity
8
0
100
AcDbCircle
10
254.73765316376947
20
15.594191500647616
30
0
40
0.26574803149607645
210
0
220
0
230
1
0
CIRCLE
5
102
100
AcDbEntity
8
0
100
AcDbCircle
10
248.73765316376947
20
15.594191500647616
30
0
40
0.26574803149605741
210
0
220
0
230
1
0
LWPOLYLINE
5
103
100
AcDbEntity
8
0
100
AcDbPolyline
90
4
70
1
43
0.0
10
250.69881889763778
20
17.637795275590555
42
-0.99999999999999989
10
250.16732283464569
20
17.637795275590555
10
250.16732283464569
20
17.795275590551185
42
-0.99999999999999989
10
250.69881889763778
20
17.795275590551185
0
LWPOLYLINE
5
104
100
AcDbEntity
8
0
100
AcDbPolyline
90
4
70
1
43
0.0
10
252.9271653543307
20
17.635433070866146
42
-0.99999999999999989
10
252.39566929133861
20
17.635433070866146
10
252.39566929133861
20
17.792913385826775
42
-0.99999999999999989
10
252.9271653543307
20
17.792913385826775
0
ENDSEC
0
SECTION
2
OBJECTS
0
DICTIONARY
5
C
100
AcDbDictionary
3
ACAD_GROUP
350
D
3
ACAD_MLINESTYLE
350
17
0
DICTIONARY
5
D
100
AcDbDictionary
0
DICTIONARY
5
1A
330
C
100
AcDbDictionary
0
DICTIONARY
5
17
100
AcDbDictionary
0
ENDSEC
0
EOF
