0
SECTION
2
HEADER
9
$INSUNITS
70
1
9
$ACADVER
1
AC1014
9
$HANDSEED
5
FFFF
0
ENDSEC
0
SECTION
2
TABLES
0
TABLE
2
VPORT
5
8
100
AcDbSymbolTable
0
ENDTAB
0
TABLE
2
LTYPE
5
5
100
AcDbSymbolTable
0
LTYPE
5
14
100
AcDbSymbolTableRecord
100
AcDbLinetypeTableRecord
2
BYBLOCK
70
0
0
LTYPE
5
15
100
AcDbSymbolTableRecord
100
AcDbLinetypeTableRecord
2
BYLAYER
70
0
0
ENDTAB
0
TABLE
2
LAYER
5
2
100
AcDbSymbolTable
70
2
0
LAYER
5
50
100
AcDbSymbolTableRecord
100
AcDbLayerTableRecord
2
0
70
0
6
CONTINUOUS
0
ENDTAB
0
TABLE
2
STYLE
5
3
100
AcDbSymbolTable
70
1
0
STYLE
5
11
100
AcDbSymbolTableRecord
100
AcDbTextStyleTableRecord
2
STANDARD
70
0
0
ENDTAB
0
TABLE
2
VIEW
5
6
100
AcDbSymbolTable
70
0
0
ENDTAB
0
TABLE
2
UCS
5
7
100
AcDbSymbolTable
70
0
0
ENDTAB
0
TABLE
2
APPID
5
9
100
AcDbSymbolTable
70
2
0
APPID
5
12
100
AcDbSymbolTableRecord
100
AcDbRegAppTableRecord
2
ACAD
70
0
0
ENDTAB
0
TABLE
2
DIMSTYLE
5
A
100
AcDbSymbolTable
70
1
0
ENDTAB
0
TABLE
2
BLOCK_RECORD
5
1
100
AcDbSymbolTable
70
1
0
BLOCK_RECORD
5
1F
100
AcDbSymbolTableRecord
100
AcDbBlockTableRecord
2
*MODEL_SPACE
0
BLOCK_RECORD
5
1B
100
AcDbSymbolTableRecord
100
AcDbBlockTableRecord
2
*PAPER_SPACE
0
ENDTAB
0
ENDSEC
0
SECTION
2
BLOCKS
0
BLOCK
5
20
100
AcDbEntity
100
AcDbBlockBegin
2
*MODEL_SPACE
0
ENDBLK
5
21
100
AcDbEntity
100
AcDbBlockEnd
0
BLOCK
5
1C
100
AcDbEntity
100
AcDbBlockBegin
2
*PAPER_SPACE
0
ENDBLK
5
1D
100
AcDbEntity
100
AcDbBlockEnd
0
ENDSEC
0
SECTION
2
ENTITIES
0
LINE
5
100
100
AcDbEntity
8
0
100
AcDbLine
10
0
20
0
30
0
11
-1.8208999999999997
21
0
31
0
0
LINE
5
101
100
AcDbEntity
8
0
100
AcDbLine
10
-1.8208999999999997
20
0
30
0
11
-3.6417999999999995
21
0
31
0
0
LINE
5
102
100
AcDbEntity
8
0
100
AcDbLine
10
0
20
0
30
0
11
0
21
7
31
0
0
LINE
5
103
100
AcDbEntity
8
0
100
AcDbLine
10
0
20
7
30
0
11
0
21
7.0625
31
0
0
LINE
5
104
100
AcDbEntity
8
0
100
AcDbLine
10
0
20
7.0625
30
0
11
0
21
14.062499999999998
31
0
0
LINE
5
105
100
AcDbEntity
8
0
100
AcDbLine
10
0
20
14.062499999999998
30
0
11
0
21
14.124999999999998
31
0
0
LINE
5
106
100
AcDbEntity
8
0
100
AcDbLine
10
0
20
14.124999999999998
30
0
11
0
21
21.124999999999996
31
0
0
LINE
5
107
100
AcDbEntity
8
0
100
AcDbLine
10
0
20
21.124999999999996
30
0
11
0
21
21.187499999999996
31
0
0
LINE
5
108
100
AcDbEntity
8
0
100
AcDbLine
10
0
20
21.187499999999996
30
0
11
0
21
28.187499999999996
31
0
0
LINE
5
109
100
AcDbEntity
8
0
100
AcDbLine
10
0
20
28.187499999999996
30
0
11
-3.6417999999999995
21
28.187499999999996
31
0
0
LINE
5
110
100
AcDbEntity
8
0
100
AcDbLine
10
-3.6417999999999995
20
7
30
0
11
-3.5792999999999995
21
7
31
0
0
LINE
5
111
100
AcDbEntity
8
0
100
AcDbLine
10
-3.5792999999999995
20
7
30
0
11
-3.5792999999999995
21
7.0625
31
0
0
LINE
5
112
100
AcDbEntity
8
0
100
AcDbLine
10
-3.5792999999999995
20
7.0625
30
0
11
-3.6417999999999995
21
7.0625
31
0
0
LINE
5
113
100
AcDbEntity
8
0
100
AcDbLine
10
-3.6417999999999995
20
14.062499999999998
30
0
11
-3.5792999999999995
21
14.062499999999998
31
0
0
LINE
5
114
100
AcDbEntity
8
0
100
AcDbLine
10
-3.5792999999999995
20
14.062499999999998
30
0
11
-3.5792999999999995
21
14.124999999999998
31
0
0
LINE
5
115
100
AcDbEntity
8
0
100
AcDbLine
10
-3.5792999999999995
20
14.124999999999998
30
0
11
-3.6417999999999995
21
14.124999999999998
31
0
0
LINE
5
116
100
AcDbEntity
8
0
100
AcDbLine
10
-3.6417999999999995
20
21.124999999999996
30
0
11
-3.5792999999999995
21
21.124999999999996
31
0
0
LINE
5
117
100
AcDbEntity
8
0
100
AcDbLine
10
-3.5792999999999995
20
21.124999999999996
30
0
11
-3.5792999999999995
21
21.187499999999996
31
0
0
LINE
5
118
100
AcDbEntity
8
0
100
AcDbLine
10
-3.5792999999999995
20
21.187499999999996
30
0
11
-3.6417999999999995
21
21.187499999999996
31
0
0
LINE
5
119
100
AcDbEntity
8
0
100
AcDbLine
10
-3.6417999999999995
20
28.187499999999996
30
0
11
-3.6417999999999995
21
21.187499999999996
31
0
0
LINE
5
120
100
AcDbEntity
8
0
100
AcDbLine
10
-3.6417999999999995
20
21.124999999999996
30
0
11
-3.6417999999999995
21
14.124999999999998
31
0
0
LINE
5
121
100
AcDbEntity
8
0
100
AcDbLine
10
-3.6417999999999995
20
7
30
0
11
-3.6417999999999995
21
0
31
0
0
CIRCLE
5
122
100
AcDbEntity
8
0
100
AcDbCircle
10
-2.8917999999999995
20
27.437499999999996
30
0
40
0.18749999999999922
210
0
220
0
230
1
0
CIRCLE
5
123
100
AcDbEntity
8
0
100
AcDbCircle
10
-2.8917999999999995
20
21.937499999999996
30
0
40
0.18750000000000008
210
0
220
0
230
1
0
CIRCLE
5
124
100
AcDbEntity
8
0
100
AcDbCircle
10
-2.8917999999999995
20
20.374999999999996
30
0
40
0.18750000000000083
210
0
220
0
230
1
0
CIRCLE
5
125
100
AcDbEntity
8
0
100
AcDbCircle
10
-2.8917999999999995
20
14.874999999999998
30
0
40
0.18750000000000008
210
0
220
0
230
1
0
CIRCLE
5
126
100
AcDbEntity
8
0
100
AcDbCircle
10
-2.8917999999999995
20
13.312499999999998
30
0
40
0.18750000000000008
210
0
220
0
230
1
0
CIRCLE
5
127
100
AcDbEntity
8
0
100
AcDbCircle
10
-2.8917999999999995
20
7.8124999999999991
30
0
40
0.18750000000000031
210
0
220
0
230
1
0
CIRCLE
5
128
100
AcDbEntity
8
0
100
AcDbCircle
10
-2.8917999999999995
20
6.2499999999999991
30
0
40
0.18750000000000011
210
0
220
0
230
1
0
CIRCLE
5
129
100
AcDbEntity
8
0
100
AcDbCircle
10
-2.8917999999999995
20
0.75000000000000033
30
0
40
0.18750000000000006
210
0
220
0
230
1
0
LWPOLYLINE
5
130
100
AcDbEntity
8
0
100
AcDbPolyline
90
4
70
1
43
0.0
10
-1.2499999999999998
20
26.820499999999992
10
-0.75
20
26.820499999999992
42
-0.99999999999999989
10
-0.75
20
26.554499999999997
10
-1.2499999999999998
20
26.554499999999997
42
-0.99999999999999989
0
LINE
5
131
100
AcDbEntity
8
0
100
AcDbLine
10
-0.75
20
26.687499999999996
30
0
11
-1.2499999999999998
21
26.687499999999996
31
0
0
LWPOLYLINE
5
132
100
AcDbEntity
8
0
100
AcDbPolyline
90
4
70
1
43
0.0
10
-1.2499999999999998
20
22.820499999999999
10
-0.75
20
22.820499999999999
42
-0.99999999999999989
10
-0.75
20
22.554499999999997
10
-1.2499999999999998
20
22.554499999999997
42
-0.99999999999999989
0
LINE
5
133
100
AcDbEntity
8
0
100
AcDbLine
10
-0.75
20
22.687499999999996
30
0
11
-1.2499999999999998
21
22.687499999999996
31
0
0
LWPOLYLINE
5
134
100
AcDbEntity
8
0
100
AcDbPolyline
90
4
70
1
43
0.0
10
-1.2499999999999774
20
19.757499999999993
10
-0.74999999999997768
20
19.757499999999993
42
-0.99999999999999989
10
-0.74999999999997768
20
19.491499999999998
10
-1.2499999999999774
20
19.491499999999998
42
-0.99999999999999989
0
LWPOLYLINE
5
135
100
AcDbEntity
8
0
100
AcDbPolyline
90
4
70
1
43
0.0
10
-1.2499999999999774
20
15.757499999999997
10
-0.74999999999997768
20
15.757499999999997
42
-0.99999999999999989
10
-0.74999999999997768
20
15.491499999999997
10
-1.2499999999999774
20
15.491499999999997
42
-0.99999999999999989
0
LWPOLYLINE
5
136
100
AcDbEntity
8
0
100
AcDbPolyline
90
4
70
1
43
0.0
10
-1.2499999999999774
20
12.694499999999991
10
-0.74999999999997768
20
12.694499999999991
42
-0.99999999999999989
10
-0.74999999999997768
20
12.428499999999996
10
-1.2499999999999774
20
12.428499999999996
42
-0.99999999999999989
0
LWPOLYLINE
5
137
100
AcDbEntity
8
0
100
AcDbPolyline
90
4
70
1
43
0.0
10
-1.2499999999999774
20
8.6944999999999961
10
-0.74999999999997768
20
8.6944999999999961
42
-0.99999999999999989
10
-0.74999999999997768
20
8.4284999999999961
10
-1.2499999999999774
20
8.4284999999999961
42
-0.99999999999999989
0
LWPOLYLINE
5
138
100
AcDbEntity
8
0
100
AcDbPolyline
90
4
70
1
43
0.0
10
-1.2499999999999774
20
5.6314999999999902
10
-0.74999999999997768
20
5.6314999999999902
42
-0.99999999999999989
10
-0.74999999999997768
20
5.3654999999999955
10
-1.2499999999999774
20
5.3654999999999955
42
-0.99999999999999989
0
LWPOLYLINE
5
139
100
AcDbEntity
8
0
100
AcDbPolyline
90
4
70
1
43
0.0
10
-1.2499999999999774
20
1.6314999999999948
10
-0.74999999999997768
20
1.6314999999999948
42
-0.99999999999999989
10
-0.74999999999997768
20
1.3654999999999944
10
-1.2499999999999774
20
1.3654999999999944
42
-0.99999999999999989
0
LINE
5
140
100
AcDbEntity
8
0
100
AcDbLine
10
-3.6417999999999995
20
7.0625
30
0
11
-3.6417999999999995
21
14.062499999999998
31
0
0
LINE
5
141
100
AcDbEntity
8
0
100
AcDbLine
10
-1.8208999999999997
20
0
30
0
11
-1.8208999999999997
21
28.187499999999996
31
0
0
ENDSEC
0
SECTION
2
OBJECTS
0
DICTIONARY
5
C
100
AcDbDictionary
3
ACAD_GROUP
350
D
3
ACAD_MLINESTYLE
350
17
0
DICTIONARY
5
D
100
AcDbDictionary
0
DICTIONARY
5
1A
330
C
100
AcDbDictionary
0
DICTIONARY
5
17
100
AcDbDictionary
0
ENDSEC
0
EOF
