0
SECTION
2
HEADER
9
$INSUNITS
70
1
9
$ACADVER
1
AC1014
9
$HANDSEED
5
FFFF
0
ENDSEC
0
SECTION
2
TABLES
0
TABLE
2
VPORT
5
8
100
AcDbSymbolTable
0
ENDTAB
0
TABLE
2
LTYPE
5
5
100
AcDbSymbolTable
0
LTYPE
5
14
100
AcDbSymbolTableRecord
100
AcDbLinetypeTableRecord
2
BYBLOCK
70
0
0
LTYPE
5
15
100
AcDbSymbolTableRecord
100
AcDbLinetypeTableRecord
2
BYLAYER
70
0
0
ENDTAB
0
TABLE
2
LAYER
5
2
100
AcDbSymbolTable
70
2
0
LAYER
5
50
100
AcDbSymbolTableRecord
100
AcDbLayerTableRecord
2
0
70
0
6
CONTINUOUS
0
ENDTAB
0
TABLE
2
STYLE
5
3
100
AcDbSymbolTable
70
1
0
STYLE
5
11
100
AcDbSymbolTableRecord
100
AcDbTextStyleTableRecord
2
STANDARD
70
0
0
ENDTAB
0
TABLE
2
VIEW
5
6
100
AcDbSymbolTable
70
0
0
ENDTAB
0
TABLE
2
UCS
5
7
100
AcDbSymbolTable
70
0
0
ENDTAB
0
TABLE
2
APPID
5
9
100
AcDbSymbolTable
70
2
0
APPID
5
12
100
AcDbSymbolTableRecord
100
AcDbRegAppTableRecord
2
ACAD
70
0
0
ENDTAB
0
TABLE
2
DIMSTYLE
5
A
100
AcDbSymbolTable
70
1
0
ENDTAB
0
TABLE
2
BLOCK_RECORD
5
1
100
AcDbSymbolTable
70
1
0
BLOCK_RECORD
5
1F
100
AcDbSymbolTableRecord
100
AcDbBlockTableRecord
2
*MODEL_SPACE
0
BLOCK_RECORD
5
1B
100
AcDbSymbolTableRecord
100
AcDbBlockTableRecord
2
*PAPER_SPACE
0
ENDTAB
0
ENDSEC
0
SECTION
2
BLOCKS
0
BLOCK
5
20
100
AcDbEntity
100
AcDbBlockBegin
2
*MODEL_SPACE
0
ENDBLK
5
21
100
AcDbEntity
100
AcDbBlockEnd
0
BLOCK
5
1C
100
AcDbEntity
100
AcDbBlockBegin
2
*PAPER_SPACE
0
ENDBLK
5
1D
100
AcDbEntity
100
AcDbBlockEnd
0
ENDSEC
0
SECTION
2
ENTITIES
0
LINE
5
100
100
AcDbEntity
8
0
100
AcDbLine
10
0
20
0
30
0
11
-1.4973000000000001
21
0
31
0
0
LINE
5
101
100
AcDbEntity
8
0
100
AcDbLine
10
-1.4973000000000001
20
0
30
0
11
-2.9946000000000002
21
0
31
0
0
LINE
5
102
100
AcDbEntity
8
0
100
AcDbLine
10
0
20
0
30
0
11
0
21
1.9999999999999998
31
0
0
LINE
5
103
100
AcDbEntity
8
0
100
AcDbLine
10
-2.9946000000000002
20
0
30
0
11
-2.9946000000000002
21
1.9374999999999998
31
0
0
CIRCLE
5
104
100
AcDbEntity
8
0
100
AcDbCircle
10
-2.2459499999999997
20
0.99999999999999989
30
0
40
0.18749999999999981
210
0
220
0
230
1
0
CIRCLE
5
105
100
AcDbEntity
8
0
100
AcDbCircle
10
-0.75
20
0.99999999999999989
30
0
40
0.1615
210
0
220
0
230
1
0
LINE
5
106
100
AcDbEntity
8
0
100
AcDbLine
10
-2.9946000000000002
20
1.9374999999999998
30
0
11
-2.9320999999999997
21
1.9374999999999998
31
0
0
LINE
5
107
100
AcDbEntity
8
0
100
AcDbLine
10
-2.9320999999999997
20
1.9374999999999998
30
0
11
-2.9320999999999997
21
1.9999999999999998
31
0
0
LINE
5
108
100
AcDbEntity
8
0
100
AcDbLine
10
0
20
2.000000000000016
30
0
11
0
21
4.000000000000016
31
0
0
CIRCLE
5
109
100
AcDbEntity
8
0
100
AcDbCircle
10
-0.75
20
3.000000000000016
30
0
40
0.1615
210
0
220
0
230
1
0
CIRCLE
5
110
100
AcDbEntity
8
0
100
AcDbCircle
10
-2.2459499999999997
20
3.000000000000016
30
0
40
0.18749999999999981
210
0
220
0
230
1
0
LINE
5
111
100
AcDbEntity
8
0
100
AcDbLine
10
-2.9946000000000002
20
2.000000000000016
30
0
11
-2.9946000000000002
21
3.937500000000016
31
0
0
LINE
5
112
100
AcDbEntity
8
0
100
AcDbLine
10
-2.9320999999999997
20
3.937500000000016
30
0
11
-2.9320999999999997
21
4.000000000000016
31
0
0
LINE
5
113
100
AcDbEntity
8
0
100
AcDbLine
10
-2.9946000000000002
20
3.937500000000016
30
0
11
-2.9320999999999997
21
3.937500000000016
31
0
0
LINE
5
114
100
AcDbEntity
8
0
100
AcDbLine
10
0
20
3.9999999999999871
30
0
11
0
21
5.9999999999999867
31
0
0
CIRCLE
5
115
100
AcDbEntity
8
0
100
AcDbCircle
10
-0.75
20
4.9999999999999867
30
0
40
0.1615
210
0
220
0
230
1
0
CIRCLE
5
116
100
AcDbEntity
8
0
100
AcDbCircle
10
-2.2459499999999997
20
4.9999999999999867
30
0
40
0.18749999999999981
210
0
220
0
230
1
0
LINE
5
117
100
AcDbEntity
8
0
100
AcDbLine
10
-2.9946000000000002
20
3.9999999999999871
30
0
11
-2.9946000000000002
21
5.9374999999999876
31
0
0
LINE
5
118
100
AcDbEntity
8
0
100
AcDbLine
10
-2.9320999999999997
20
5.9374999999999876
30
0
11
-2.9320999999999997
21
5.9999999999999867
31
0
0
LINE
5
119
100
AcDbEntity
8
0
100
AcDbLine
10
-2.9946000000000002
20
5.9374999999999876
30
0
11
-2.9320999999999997
21
5.9374999999999876
31
0
0
LINE
5
120
100
AcDbEntity
8
0
100
AcDbLine
10
0
20
6.0000000000000027
30
0
11
0
21
8.0000000000000018
31
0
0
CIRCLE
5
121
100
AcDbEntity
8
0
100
AcDbCircle
10
-0.75
20
7.0000000000000027
30
0
40
0.1615
210
0
220
0
230
1
0
CIRCLE
5
122
100
AcDbEntity
8
0
100
AcDbCircle
10
-2.2459499999999997
20
7.0000000000000027
30
0
40
0.18749999999999981
210
0
220
0
230
1
0
LINE
5
123
100
AcDbEntity
8
0
100
AcDbLine
10
-2.9946000000000002
20
6.0000000000000027
30
0
11
-2.9946000000000002
21
7.9375000000000036
31
0
0
LINE
5
124
100
AcDbEntity
8
0
100
AcDbLine
10
-2.9320999999999997
20
7.9375000000000036
30
0
11
-2.9320999999999997
21
8.0000000000000018
31
0
0
LINE
5
125
100
AcDbEntity
8
0
100
AcDbLine
10
-2.9946000000000002
20
7.9375000000000036
30
0
11
-2.9320999999999997
21
7.9375000000000036
31
0
0
LINE
5
126
100
AcDbEntity
8
0
100
AcDbLine
10
0
20
8.0000000000000195
30
0
11
0
21
10.000000000000018
31
0
0
CIRCLE
5
127
100
AcDbEntity
8
0
100
AcDbCircle
10
-0.75
20
9.0000000000000178
30
0
40
0.1615
210
0
220
0
230
1
0
CIRCLE
5
128
100
AcDbEntity
8
0
100
AcDbCircle
10
-2.2459499999999997
20
9.0000000000000178
30
0
40
0.18749999999999981
210
0
220
0
230
1
0
LINE
5
129
100
AcDbEntity
8
0
100
AcDbLine
10
-2.9946000000000002
20
8.0000000000000195
30
0
11
-2.9946000000000002
21
9.9375000000000195
31
0
0
LINE
5
130
100
AcDbEntity
8
0
100
AcDbLine
10
-2.9320999999999997
20
9.9375000000000195
30
0
11
-2.9320999999999997
21
10.000000000000018
31
0
0
LINE
5
131
100
AcDbEntity
8
0
100
AcDbLine
10
-2.9946000000000002
20
9.9375000000000195
30
0
11
-2.9320999999999997
21
9.9375000000000195
31
0
0
LINE
5
132
100
AcDbEntity
8
0
100
AcDbLine
10
0
20
9.9999999999999893
30
0
11
0
21
11.999999999999989
31
0
0
CIRCLE
5
133
100
AcDbEntity
8
0
100
AcDbCircle
10
-0.75
20
10.999999999999989
30
0
40
0.1615
210
0
220
0
230
1
0
CIRCLE
5
134
100
AcDbEntity
8
0
100
AcDbCircle
10
-2.2459499999999997
20
10.999999999999989
30
0
40
0.18749999999999981
210
0
220
0
230
1
0
LINE
5
135
100
AcDbEntity
8
0
100
AcDbLine
10
-2.9946000000000002
20
9.9999999999999893
30
0
11
-2.9946000000000002
21
11.937499999999991
31
0
0
LINE
5
136
100
AcDbEntity
8
0
100
AcDbLine
10
-2.9320999999999997
20
11.937499999999991
30
0
11
-2.9320999999999997
21
11.999999999999989
31
0
0
LINE
5
137
100
AcDbEntity
8
0
100
AcDbLine
10
-2.9946000000000002
20
11.937499999999991
30
0
11
-2.9320999999999997
21
11.937499999999991
31
0
0
LINE
5
138
100
AcDbEntity
8
0
100
AcDbLine
10
0
20
12.000000000000005
30
0
11
0
21
14.000000000000005
31
0
0
CIRCLE
5
139
100
AcDbEntity
8
0
100
AcDbCircle
10
-0.75
20
13.000000000000005
30
0
40
0.1615
210
0
220
0
230
1
0
CIRCLE
5
140
100
AcDbEntity
8
0
100
AcDbCircle
10
-2.2459499999999997
20
13.000000000000005
30
0
40
0.18749999999999981
210
0
220
0
230
1
0
LINE
5
141
100
AcDbEntity
8
0
100
AcDbLine
10
-2.9946000000000002
20
12.000000000000005
30
0
11
-2.9946000000000002
21
13.937500000000005
31
0
0
LINE
5
142
100
AcDbEntity
8
0
100
AcDbLine
10
-2.9320999999999997
20
13.937500000000005
30
0
11
-2.9320999999999997
21
14.000000000000005
31
0
0
LINE
5
143
100
AcDbEntity
8
0
100
AcDbLine
10
-2.9946000000000002
20
13.937500000000005
30
0
11
-2.9320999999999997
21
13.937500000000005
31
0
0
LINE
5
144
100
AcDbEntity
8
0
100
AcDbLine
10
0
20
14.000000000000021
30
0
11
0
21
16.000000000000021
31
0
0
CIRCLE
5
145
100
AcDbEntity
8
0
100
AcDbCircle
10
-0.75
20
15.000000000000021
30
0
40
0.1615
210
0
220
0
230
1
0
CIRCLE
5
146
100
AcDbEntity
8
0
100
AcDbCircle
10
-2.2459499999999997
20
15.000000000000021
30
0
40
0.18749999999999981
210
0
220
0
230
1
0
LINE
5
147
100
AcDbEntity
8
0
100
AcDbLine
10
-2.9946000000000002
20
14.000000000000021
30
0
11
-2.9946000000000002
21
15.937500000000021
31
0
0
LINE
5
148
100
AcDbEntity
8
0
100
AcDbLine
10
-2.9320999999999997
20
15.937500000000021
30
0
11
-2.9320999999999997
21
16.000000000000021
31
0
0
LINE
5
149
100
AcDbEntity
8
0
100
AcDbLine
10
-2.9946000000000002
20
15.937500000000021
30
0
11
-2.9320999999999997
21
15.937500000000021
31
0
0
LINE
5
150
100
AcDbEntity
8
0
100
AcDbLine
10
0
20
15.999999999999993
30
0
11
0
21
17.999999999999993
31
0
0
CIRCLE
5
151
100
AcDbEntity
8
0
100
AcDbCircle
10
-0.75
20
16.999999999999993
30
0
40
0.1615
210
0
220
0
230
1
0
CIRCLE
5
152
100
AcDbEntity
8
0
100
AcDbCircle
10
-2.2459499999999997
20
16.999999999999993
30
0
40
0.18749999999999981
210
0
220
0
230
1
0
LINE
5
153
100
AcDbEntity
8
0
100
AcDbLine
10
-2.9946000000000002
20
15.999999999999993
30
0
11
-2.9946000000000002
21
17.937499999999993
31
0
0
LINE
5
154
100
AcDbEntity
8
0
100
AcDbLine
10
-2.9320999999999997
20
17.937499999999993
30
0
11
-2.9320999999999997
21
17.999999999999993
31
0
0
LINE
5
155
100
AcDbEntity
8
0
100
AcDbLine
10
-2.9946000000000002
20
17.937499999999993
30
0
11
-2.9320999999999997
21
17.937499999999993
31
0
0
LINE
5
156
100
AcDbEntity
8
0
100
AcDbLine
10
0
20
18.000000000000011
30
0
11
0
21
20.000000000000007
31
0
0
CIRCLE
5
157
100
AcDbEntity
8
0
100
AcDbCircle
10
-0.75
20
19.000000000000007
30
0
40
0.1615
210
0
220
0
230
1
0
CIRCLE
5
158
100
AcDbEntity
8
0
100
AcDbCircle
10
-2.2459499999999997
20
19.000000000000007
30
0
40
0.18749999999999981
210
0
220
0
230
1
0
LINE
5
159
100
AcDbEntity
8
0
100
AcDbLine
10
-2.9946000000000002
20
18.000000000000011
30
0
11
-2.9946000000000002
21
19.937500000000011
31
0
0
LINE
5
160
100
AcDbEntity
8
0
100
AcDbLine
10
-2.9320999999999997
20
19.937500000000011
30
0
11
-2.9320999999999997
21
20.000000000000007
31
0
0
LINE
5
161
100
AcDbEntity
8
0
100
AcDbLine
10
-2.9946000000000002
20
19.937500000000011
30
0
11
-2.9320999999999997
21
19.937500000000011
31
0
0
LINE
5
162
100
AcDbEntity
8
0
100
AcDbLine
10
0
20
19.999999999999979
30
0
11
0
21
21.999999999999979
31
0
0
CIRCLE
5
163
100
AcDbEntity
8
0
100
AcDbCircle
10
-0.75
20
20.999999999999979
30
0
40
0.1615
210
0
220
0
230
1
0
CIRCLE
5
164
100
AcDbEntity
8
0
100
AcDbCircle
10
-2.2459499999999997
20
20.999999999999979
30
0
40
0.18749999999999981
210
0
220
0
230
1
0
LINE
5
165
100
AcDbEntity
8
0
100
AcDbLine
10
-2.9946000000000002
20
19.999999999999979
30
0
11
-2.9946000000000002
21
21.937499999999982
31
0
0
LINE
5
166
100
AcDbEntity
8
0
100
AcDbLine
10
-2.9320999999999997
20
21.937499999999982
30
0
11
-2.9320999999999997
21
21.999999999999979
31
0
0
LINE
5
167
100
AcDbEntity
8
0
100
AcDbLine
10
-2.9946000000000002
20
21.937499999999982
30
0
11
-2.9320999999999997
21
21.937499999999982
31
0
0
LINE
5
168
100
AcDbEntity
8
0
100
AcDbLine
10
0
20
21.999999999999996
30
0
11
0
21
23.999999999999996
31
0
0
CIRCLE
5
169
100
AcDbEntity
8
0
100
AcDbCircle
10
-0.75
20
22.999999999999996
30
0
40
0.1615
210
0
220
0
230
1
0
CIRCLE
5
170
100
AcDbEntity
8
0
100
AcDbCircle
10
-2.2459499999999997
20
22.999999999999996
30
0
40
0.18749999999999981
210
0
220
0
230
1
0
LINE
5
171
100
AcDbEntity
8
0
100
AcDbLine
10
-2.9946000000000002
20
21.999999999999996
30
0
11
-2.9946000000000002
21
23.937499999999996
31
0
0
LINE
5
172
100
AcDbEntity
8
0
100
AcDbLine
10
-2.9320999999999997
20
23.937499999999996
30
0
11
-2.9320999999999997
21
23.999999999999996
31
0
0
LINE
5
173
100
AcDbEntity
8
0
100
AcDbLine
10
-2.9946000000000002
20
23.937499999999996
30
0
11
-2.9320999999999997
21
23.937499999999996
31
0
0
LINE
5
174
100
AcDbEntity
8
0
100
AcDbLine
10
0
20
24.000000000000011
30
0
11
0
21
26.000000000000011
31
0
0
CIRCLE
5
175
100
AcDbEntity
8
0
100
AcDbCircle
10
-0.75
20
25.000000000000011
30
0
40
0.1615
210
0
220
0
230
1
0
CIRCLE
5
176
100
AcDbEntity
8
0
100
AcDbCircle
10
-2.2459499999999997
20
25.000000000000011
30
0
40
0.18749999999999981
210
0
220
0
230
1
0
LINE
5
177
100
AcDbEntity
8
0
100
AcDbLine
10
-2.9946000000000002
20
24.000000000000011
30
0
11
-2.9946000000000002
21
25.937500000000011
31
0
0
LINE
5
178
100
AcDbEntity
8
0
100
AcDbLine
10
-2.9320999999999997
20
25.937500000000011
30
0
11
-2.9320999999999997
21
26.000000000000011
31
0
0
LINE
5
179
100
AcDbEntity
8
0
100
AcDbLine
10
-2.9946000000000002
20
25.937500000000011
30
0
11
-2.9320999999999997
21
25.937500000000011
31
0
0
LINE
5
180
100
AcDbEntity
8
0
100
AcDbLine
10
0
20
0
30
0
11
0
21
1.9999999999999998
31
0
0
CIRCLE
5
181
100
AcDbEntity
8
0
100
AcDbCircle
10
-0.75
20
0.99999999999999989
30
0
40
0.1615
210
0
220
0
230
1
0
CIRCLE
5
182
100
AcDbEntity
8
0
100
AcDbCircle
10
-2.2459499999999997
20
0.99999999999999989
30
0
40
0.18749999999999981
210
0
220
0
230
1
0
LINE
5
183
100
AcDbEntity
8
0
100
AcDbLine
10
-2.9946000000000002
20
0
30
0
11
-2.9946000000000002
21
1.9374999999999998
31
0
0
LINE
5
184
100
AcDbEntity
8
0
100
AcDbLine
10
-2.9320999999999997
20
1.9374999999999998
30
0
11
-2.9320999999999997
21
1.9999999999999998
31
0
0
LINE
5
185
100
AcDbEntity
8
0
100
AcDbLine
10
-2.9946000000000002
20
1.9374999999999998
30
0
11
-2.9320999999999997
21
1.9374999999999998
31
0
0
LINE
5
186
100
AcDbEntity
8
0
100
AcDbLine
10
0
20
25.999999999999982
30
0
11
0
21
27.999999999999982
31
0
0
CIRCLE
5
187
100
AcDbEntity
8
0
100
AcDbCircle
10
-0.75
20
26.999999999999986
30
0
40
0.1615
210
0
220
0
230
1
0
CIRCLE
5
188
100
AcDbEntity
8
0
100
AcDbCircle
10
-2.2459499999999997
20
26.999999999999986
30
0
40
0.18749999999999981
210
0
220
0
230
1
0
LINE
5
189
100
AcDbEntity
8
0
100
AcDbLine
10
-2.9946000000000002
20
25.999999999999982
30
0
11
-2.9946000000000002
21
27.937499999999982
31
0
0
LINE
5
190
100
AcDbEntity
8
0
100
AcDbLine
10
-2.9320999999999997
20
27.937499999999982
30
0
11
-2.9320999999999997
21
27.999999999999982
31
0
0
LINE
5
191
100
AcDbEntity
8
0
100
AcDbLine
10
-2.9946000000000002
20
27.937499999999982
30
0
11
-2.9320999999999997
21
27.937499999999982
31
0
0
LINE
5
192
100
AcDbEntity
8
0
100
AcDbLine
10
0
20
28
30
0
11
0
21
30
31
0
0
CIRCLE
5
193
100
AcDbEntity
8
0
100
AcDbCircle
10
-0.75
20
29.000000000000004
30
0
40
0.1615
210
0
220
0
230
1
0
CIRCLE
5
194
100
AcDbEntity
8
0
100
AcDbCircle
10
-2.2459499999999997
20
29.000000000000004
30
0
40
0.18749999999999981
210
0
220
0
230
1
0
LINE
5
195
100
AcDbEntity
8
0
100
AcDbLine
10
-2.9946000000000002
20
28
30
0
11
-2.9946000000000002
21
29.9375
31
0
0
LINE
5
196
100
AcDbEntity
8
0
100
AcDbLine
10
-2.9320999999999997
20
29.9375
30
0
11
-2.9320999999999997
21
30
31
0
0
LINE
5
197
100
AcDbEntity
8
0
100
AcDbLine
10
-2.9946000000000002
20
29.9375
30
0
11
-2.9320999999999997
21
29.9375
31
0
0
LINE
5
198
100
AcDbEntity
8
0
100
AcDbLine
10
0
20
30
30
0
11
-2.9320999999999997
21
30
31
0
0
LINE
5
199
100
AcDbEntity
8
0
100
AcDbLine
10
-1.4973000000000001
20
0
30
0
11
-1.4973000000000001
21
30
31
0
0
LINE
5
200
100
AcDbEntity
8
0
100
AcDbLine
10
-2.9320999999999997
20
1.9999999999999998
30
0
11
-2.9946000000000002
21
2.000000000000016
31
0
0
LINE
5
201
100
AcDbEntity
8
0
100
AcDbLine
10
-2.9320999999999997
20
4.000000000000016
30
0
11
-2.9946000000000002
21
3.9999999999999871
31
0
0
LINE
5
202
100
AcDbEntity
8
0
100
AcDbLine
10
-2.9320999999999997
20
5.9999999999999867
30
0
11
-2.9946000000000002
21
6.0000000000000027
31
0
0
LINE
5
203
100
AcDbEntity
8
0
100
AcDbLine
10
-2.9320999999999997
20
8.0000000000000018
30
0
11
-2.9946000000000002
21
8.0000000000000195
31
0
0
LINE
5
204
100
AcDbEntity
8
0
100
AcDbLine
10
-2.9320999999999997
20
10.000000000000018
30
0
11
-2.9946000000000002
21
9.9999999999999893
31
0
0
LINE
5
205
100
AcDbEntity
8
0
100
AcDbLine
10
-2.9320999999999997
20
11.999999999999989
30
0
11
-2.9946000000000002
21
12.000000000000005
31
0
0
LINE
5
206
100
AcDbEntity
8
0
100
AcDbLine
10
-2.9320999999999997
20
14.000000000000005
30
0
11
-2.9946000000000002
21
14.000000000000021
31
0
0
LINE
5
207
100
AcDbEntity
8
0
100
AcDbLine
10
-2.9320999999999997
20
16.000000000000021
30
0
11
-2.9946000000000002
21
15.999999999999993
31
0
0
LINE
5
208
100
AcDbEntity
8
0
100
AcDbLine
10
-2.9320999999999997
20
17.999999999999993
30
0
11
-2.9946000000000002
21
18.000000000000011
31
0
0
LINE
5
209
100
AcDbEntity
8
0
100
AcDbLine
10
-2.9320999999999997
20
20.000000000000007
30
0
11
-2.9946000000000002
21
19.999999999999979
31
0
0
LINE
5
210
100
AcDbEntity
8
0
100
AcDbLine
10
-2.9320999999999997
20
21.999999999999979
30
0
11
-2.9946000000000002
21
21.999999999999996
31
0
0
LINE
5
211
100
AcDbEntity
8
0
100
AcDbLine
10
-2.9320999999999997
20
23.999999999999996
30
0
11
-2.9946000000000002
21
24.000000000000011
31
0
0
LINE
5
212
100
AcDbEntity
8
0
100
AcDbLine
10
-2.9320999999999997
20
26.000000000000011
30
0
11
-2.9946000000000002
21
25.999999999999982
31
0
0
LINE
5
213
100
AcDbEntity
8
0
100
AcDbLine
10
-2.9320999999999997
20
27.999999999999982
30
0
11
-2.9946000000000002
21
28
31
0
0
ENDSEC
0
SECTION
2
OBJECTS
0
DICTIONARY
5
C
100
AcDbDictionary
3
ACAD_GROUP
350
D
3
ACAD_MLINESTYLE
350
17
0
DICTIONARY
5
D
100
AcDbDictionary
0
DICTIONARY
5
1A
330
C
100
AcDbDictionary
0
DICTIONARY
5
17
100
AcDbDictionary
0
ENDSEC
0
EOF
