0
SECTION
2
HEADER
9
$INSUNITS
70
1
9
$ACADVER
1
AC1014
9
$HANDSEED
5
FFFF
0
ENDSEC
0
SECTION
2
TABLES
0
TABLE
2
VPORT
5
8
100
AcDbSymbolTable
0
ENDTAB
0
TABLE
2
LTYPE
5
5
100
AcDbSymbolTable
0
LTYPE
5
14
100
AcDbSymbolTableRecord
100
AcDbLinetypeTableRecord
2
BYBLOCK
70
0
0
LTYPE
5
15
100
AcDbSymbolTableRecord
100
AcDbLinetypeTableRecord
2
BYLAYER
70
0
0
ENDTAB
0
TABLE
2
LAYER
5
2
100
AcDbSymbolTable
70
2
0
LAYER
5
50
100
AcDbSymbolTableRecord
100
AcDbLayerTableRecord
2
0
70
0
6
CONTINUOUS
0
ENDTAB
0
TABLE
2
STYLE
5
3
100
AcDbSymbolTable
70
1
0
STYLE
5
11
100
AcDbSymbolTableRecord
100
AcDbTextStyleTableRecord
2
STANDARD
70
0
0
ENDTAB
0
TABLE
2
VIEW
5
6
100
AcDbSymbolTable
70
0
0
ENDTAB
0
TABLE
2
UCS
5
7
100
AcDbSymbolTable
70
0
0
ENDTAB
0
TABLE
2
APPID
5
9
100
AcDbSymbolTable
70
2
0
APPID
5
12
100
AcDbSymbolTableRecord
100
AcDbRegAppTableRecord
2
ACAD
70
0
0
ENDTAB
0
TABLE
2
DIMSTYLE
5
A
100
AcDbSymbolTable
70
1
0
ENDTAB
0
TABLE
2
BLOCK_RECORD
5
1
100
AcDbSymbolTable
70
1
0
BLOCK_RECORD
5
1F
100
AcDbSymbolTableRecord
100
AcDbBlockTableRecord
2
*MODEL_SPACE
0
BLOCK_RECORD
5
1B
100
AcDbSymbolTableRecord
100
AcDbBlockTableRecord
2
*PAPER_SPACE
0
ENDTAB
0
ENDSEC
0
SECTION
2
BLOCKS
0
BLOCK
5
20
100
AcDbEntity
100
AcDbBlockBegin
2
*MODEL_SPACE
0
ENDBLK
5
21
100
AcDbEntity
100
AcDbBlockEnd
0
BLOCK
5
1C
100
AcDbEntity
100
AcDbBlockBegin
2
*PAPER_SPACE
0
ENDBLK
5
1D
100
AcDbEntity
100
AcDbBlockEnd
0
ENDSEC
0
SECTION
2
ENTITIES
0
CIRCLE
5
100
100
AcDbEntity
8
0
100
AcDbCircle
10
-1.2610404434009612
20
-3.9080275579540995
30
0
40
0.12849999999999998
210
0
220
-0
230
1
0
CIRCLE
5
101
100
AcDbEntity
8
0
100
AcDbCircle
10
-4.410629921259841
20
-2.6922434151402208
30
0
40
0.1285000000000002
210
0
220
-0
230
1
0
CIRCLE
5
102
100
AcDbEntity
8
0
100
AcDbCircle
10
-9.6114345769715346
20
-3.9070400617393739
30
0
40
0.12849999999999975
210
0
220
0
230
1
0
CIRCLE
5
103
100
AcDbEntity
8
0
100
AcDbCircle
10
-10.559742441693157
20
-2.8629619642225541
30
0
40
0.1285
210
0
220
0
230
1
0
CIRCLE
5
104
100
AcDbEntity
8
0
100
AcDbCircle
10
-3.3550181550178944
20
-2.8642920391331255
30
0
40
0.1285
210
0
220
0
230
1
0
CIRCLE
5
105
100
AcDbEntity
8
0
100
AcDbCircle
10
-10.558278826389733
20
-6.1700482545183819
30
0
40
0.1285
210
0
220
0
230
1
0
CIRCLE
5
106
100
AcDbEntity
8
0
100
AcDbCircle
10
-3.3535545397805793
20
-6.1713786533063528
30
0
40
0.1285
210
0
220
0
230
1
0
CIRCLE
5
107
100
AcDbEntity
8
0
100
AcDbCircle
10
-1.2610404434009612
20
-3.9080275579540995
30
0
40
0.12849999999999992
210
0
220
0
230
1
0
CIRCLE
5
108
100
AcDbEntity
8
0
100
AcDbCircle
10
-4.410629921259841
20
-2.6922434151402208
30
0
40
0.12850000000000034
210
0
220
0
230
1
0
CIRCLE
5
109
100
AcDbEntity
8
0
100
AcDbCircle
10
-1.2753440881578566
20
-5.6583697276934775
30
0
40
0.12849999999999995
210
0
220
0
230
1
0
SPLINE
5
110
100
AcDbEntity
8
0
100
AcDbSpline
70
12
71
2
41
1
41
3
41
1
72
6
73
3
74
0
42
0.000000001
43
0.0000000001
44
0.0000000001
40
0
40
0
40
0
40
3.5037524777188391
40
3.5037524777188391
40
3.5037524777188391
10
-0.58470571803258964
20
-4.2321746530527422
30
0
10
-0.91953573555376722
20
-4.9307993557555641
30
0
10
-0.78638417505189462
20
-5.5538795206144904
30
0
0
SPLINE
5
111
100
AcDbEntity
8
0
100
AcDbSpline
70
12
71
2
41
1
41
3
41
1
72
6
73
3
74
0
42
0.000000001
43
0.0000000001
44
0.0000000001
40
0
40
0
40
0
40
4.6435676640723962
40
4.6435676640723962
40
4.6435676640723962
10
-1.3414210884960331
20
-6.1539843259715239
30
0
10
-2.3883850606608243
20
-6.0143995780985788
30
0
10
-3.0322273036891474
20
-6.5544567228246198
30
0
0
SPLINE
5
112
100
AcDbEntity
8
0
100
AcDbSpline
70
12
71
2
41
1
41
3
41
1
72
6
73
3
74
0
42
0.000000001
43
0.0000000001
44
0.0000000001
40
0
40
0
40
0
40
18.301470288514139
40
18.301470288514139
40
18.301470288514139
10
-3.5786115230935525
20
-6.6178642121568787
30
0
10
-6.8515445762187763
20
-4.9680987831964298
30
0
10
-10.344300563035882
20
-6.6219479146334024
30
0
0
SPLINE
5
113
100
AcDbEntity
8
0
100
AcDbSpline
70
12
71
2
41
1
41
3
41
1
72
6
73
3
74
0
42
0.000000001
43
0.0000000001
44
0.0000000001
40
0
40
0
40
0
40
15.054054743013959
40
15.054054743013959
40
15.054054743013959
10
-10.438680316610876
20
-2.3778393386209831
30
0
10
-7.4262192111257637
20
-3.1295976032566659
30
0
10
-4.6976534103979173
20
-1.9993382869422811
30
0
0
SPLINE
5
114
100
AcDbEntity
8
0
100
AcDbSpline
70
12
71
2
41
1
41
3
41
1
72
6
73
3
74
0
42
0.000000001
43
0.0000000001
44
0.0000000001
40
0
40
0
40
0
40
7.8089246952361631
40
7.8089246952361631
40
7.8089246952361631
10
-11.034622718033523
20
-3.01945069590281
30
0
10
-10.501686028634388
20
-4.6366989131795044
30
0
10
-11.024656567206382
20
-5.9897934269248907
30
0
0
SPLINE
5
115
100
AcDbEntity
8
0
100
AcDbSpline
70
12
71
2
41
1
41
3
41
1
72
6
73
3
74
0
42
0.000000001
43
0.0000000001
44
0.0000000001
40
0
40
0
40
0
40
1.8181602058453612
40
1.8181602058453612
40
1.8181602058453612
10
-3.2821817179669357
20
-2.3696256329180669
30
0
10
-3.6960650858287152
20
-2.3086839771052836
30
0
10
-3.9346725722804883
20
-2.1126187718951348
30
0
0
SPLINE
5
116
100
AcDbEntity
8
0
100
AcDbSpline
70
12
71
2
41
1
41
3
41
1
72
6
73
3
74
0
42
0.000000001
43
0.0000000001
44
0.0000000001
40
0
40
0
40
0
40
5.0884067676498574
40
5.0884067676498574
40
5.0884067676498574
10
-1.2010911625780807
20
-3.1604273414420798
30
0
10
-2.3570067356384232
20
-3.0677356784831753
30
0
10
-3.0275052080235718
20
-2.4864888237536187
30
0
0
ARC
5
117
100
AcDbEntity
8
0
100
AcDbCircle
10
-1.2610404434009612
20
-3.9080275579540995
30
0
40
0.74999999999999956
210
0
220
0
230
1
100
AcDbArc
50
-25.607012808480032
51
85.415321372098887
0
ARC
5
118
100
AcDbEntity
8
0
100
AcDbCircle
10
-3.3550181550178944
20
-2.8642920391331255
30
0
40
0.5
210
0
220
-0
230
1
100
AcDbArc
50
49.078386596726325
51
81.623754228328878
0
ARC
5
119
100
AcDbEntity
8
0
100
AcDbCircle
10
-4.410629921259841
20
-2.6922434151402208
30
0
40
0.75000004562684575
210
0
220
-0
230
1
100
AcDbArc
50
50.589848332526728
51
112.50090253858757
0
ARC
5
120
100
AcDbEntity
8
0
100
AcDbCircle
10
-10.559742441693157
20
-2.8629619642225541
30
0
40
0.49999999999999978
210
0
220
-0
230
1
100
AcDbArc
50
75.988050690373285
51
198.23875819835797
0
ARC
5
121
100
AcDbEntity
8
0
100
AcDbCircle
10
-10.558278826389733
20
-6.1700482545183819
30
0
40
0.50000000000000056
210
0
220
0
230
1
100
AcDbArc
50
158.86850101331825
51
295.33794593101686
0
ARC
5
122
100
AcDbEntity
8
0
100
AcDbCircle
10
-3.3535545397805793
20
-6.1713786533063528
30
0
40
0.50000000000000167
210
0
220
0
230
1
100
AcDbArc
50
243.24900383474835
51
309.99004279579941
0
ARC
5
123
100
AcDbEntity
8
0
100
AcDbCircle
10
-1.2753440881578566
20
-5.6583697276934775
30
0
40
0.50000000000000056
210
0
220
0
230
1
100
AcDbArc
50
-97.594081559268645
51
12.062608609422066
0
ENDSEC
0
SECTION
2
OBJECTS
0
DICTIONARY
5
C
100
AcDbDictionary
3
ACAD_GROUP
350
D
3
ACAD_MLINESTYLE
350
17
0
DICTIONARY
5
D
100
AcDbDictionary
0
DICTIONARY
5
1A
330
C
100
AcDbDictionary
0
DICTIONARY
5
17
100
AcDbDictionary
0
ENDSEC
0
EOF
