0
SECTION
2
HEADER
9
$INSUNITS
70
1
9
$ACADVER
1
AC1014
9
$HANDSEED
5
FFFF
0
ENDSEC
0
SECTION
2
TABLES
0
TABLE
2
VPORT
5
8
100
AcDbSymbolTable
0
ENDTAB
0
TABLE
2
LTYPE
5
5
100
AcDbSymbolTable
0
LTYPE
5
14
100
AcDbSymbolTableRecord
100
AcDbLinetypeTableRecord
2
BYBLOCK
70
0
0
LTYPE
5
15
100
AcDbSymbolTableRecord
100
AcDbLinetypeTableRecord
2
BYLAYER
70
0
0
ENDTAB
0
TABLE
2
LAYER
5
2
100
AcDbSymbolTable
70
2
0
LAYER
5
50
100
AcDbSymbolTableRecord
100
AcDbLayerTableRecord
2
0
70
0
6
CONTINUOUS
0
ENDTAB
0
TABLE
2
STYLE
5
3
100
AcDbSymbolTable
70
1
0
STYLE
5
11
100
AcDbSymbolTableRecord
100
AcDbTextStyleTableRecord
2
STANDARD
70
0
0
ENDTAB
0
TABLE
2
VIEW
5
6
100
AcDbSymbolTable
70
0
0
ENDTAB
0
TABLE
2
UCS
5
7
100
AcDbSymbolTable
70
0
0
ENDTAB
0
TABLE
2
APPID
5
9
100
AcDbSymbolTable
70
2
0
APPID
5
12
100
AcDbSymbolTableRecord
100
AcDbRegAppTableRecord
2
ACAD
70
0
0
ENDTAB
0
TABLE
2
DIMSTYLE
5
A
100
AcDbSymbolTable
70
1
0
ENDTAB
0
TABLE
2
BLOCK_RECORD
5
1
100
AcDbSymbolTable
70
1
0
BLOCK_RECORD
5
1F
100
AcDbSymbolTableRecord
100
AcDbBlockTableRecord
2
*MODEL_SPACE
0
BLOCK_RECORD
5
1B
100
AcDbSymbolTableRecord
100
AcDbBlockTableRecord
2
*PAPER_SPACE
0
ENDTAB
0
ENDSEC
0
SECTION
2
BLOCKS
0
BLOCK
5
20
100
AcDbEntity
100
AcDbBlockBegin
2
*MODEL_SPACE
0
ENDBLK
5
21
100
AcDbEntity
100
AcDbBlockEnd
0
BLOCK
5
1C
100
AcDbEntity
100
AcDbBlockBegin
2
*PAPER_SPACE
0
ENDBLK
5
1D
100
AcDbEntity
100
AcDbBlockEnd
0
ENDSEC
0
SECTION
2
ENTITIES
0
LWPOLYLINE
5
100
100
AcDbEntity
8
0
100
AcDbPolyline
90
36
70
1
43
0.0
10
3.7500000000000013
20
-10.995099999999997
10
5.7500000000000009
20
-10.995099999999997
10
5.7500000000000009
20
-9.6874999999999982
10
10.625
20
-9.6874999999999982
10
10.625
20
-10.995099999999997
10
12.625
20
-10.995099999999997
10
12.625
20
-9.6874999999999982
10
17.375
20
-9.6874999999999982
10
17.375
20
-10.995099999999997
10
19.374999999999996
20
-10.995099999999997
10
19.374999999999996
20
-9.6874999999999982
10
24.249999999999996
20
-9.6874999999999982
10
24.249999999999996
20
-10.982599690431307
10
26.249999999999996
20
-10.982599690431307
10
26.249999999999996
20
-9.6874999999999982
10
28.8124995644637
20
-9.6874999999999982
10
28.8124995644637
20
-9.3749999999999982
10
30.124999549445207
20
-9.3749999999999982
10
30.124999549445207
20
-8.3749999999999982
10
28.8124995644637
20
-8.3749999999999982
10
28.8124995644637
20
-1.75
10
30.124999549445207
20
-1.75
10
30.124999549445207
20
-0.75
10
28.8124995644637
20
-0.75
10
28.8124995644637
20
0
10
1.1874995644633566
20
0
10
1.1874995644633566
20
-0.74999999999999967
10
-0.12499999999999988
20
-0.74999999999999989
10
-0.12499999999999994
20
-1.7499999999999996
10
1.1874995644633566
20
-1.75
10
1.1874995644633566
20
-8.375
10
-0.1375004738338009
20
-8.375
10
-0.1375004738338009
20
-9.375
10
1.1874995644633566
20
-9.375
10
1.1874995644633564
20
-9.6875002523106843
10
3.7500000000000013
20
-9.6874999999999982
0
CIRCLE
5
101
100
AcDbEntity
8
0
100
AcDbCircle
10
4.7500000000000018
20
-0.75000000000000033
30
0
40
0.15625
210
0
220
0
230
1
0
CIRCLE
5
102
100
AcDbEntity
8
0
100
AcDbCircle
10
11.625
20
-0.75
30
0
40
0.15624999999999997
210
0
220
0
230
1
0
CIRCLE
5
103
100
AcDbEntity
8
0
100
AcDbCircle
10
18.375
20
-0.75
30
0
40
0.15625000000000058
210
0
220
0
230
1
0
CIRCLE
5
104
100
AcDbEntity
8
0
100
AcDbCircle
10
25.249999999999993
20
-0.75
30
0
40
0.15625000000000169
210
0
220
0
230
1
0
CIRCLE
5
105
100
AcDbEntity
8
0
100
AcDbCircle
10
4.7500000000000018
20
-9.25
30
0
40
0.15624999999999981
210
0
220
0
230
1
0
CIRCLE
5
106
100
AcDbEntity
8
0
100
AcDbCircle
10
11.625
20
-9.25
30
0
40
0.15625000000000061
210
0
220
0
230
1
0
CIRCLE
5
107
100
AcDbEntity
8
0
100
AcDbCircle
10
18.375
20
-9.25
30
0
40
0.15625000000000003
210
0
220
0
230
1
0
CIRCLE
5
108
100
AcDbEntity
8
0
100
AcDbCircle
10
25.249999999999993
20
-9.25
30
0
40
0.15624999999999775
210
0
220
0
230
1
0
LINE
5
109
100
AcDbEntity
8
0
100
AcDbLine
10
3.7500000000000013
20
-10.153799999999999
30
0
11
5.7500000000000009
21
-10.153799999999999
31
0
0
LINE
5
110
100
AcDbEntity
8
0
100
AcDbLine
10
10.625
20
-10.153799999999999
30
0
11
12.625
21
-10.153799999999999
31
0
0
LINE
5
111
100
AcDbEntity
8
0
100
AcDbLine
10
17.375
20
-10.153799999999999
30
0
11
19.374999999999996
21
-10.153799999999999
31
0
0
LINE
5
112
100
AcDbEntity
8
0
100
AcDbLine
10
24.249999999999996
20
-10.153799999999999
30
0
11
26.249999999999996
21
-10.153799999999999
31
0
0
LINE
5
113
100
AcDbEntity
8
0
100
AcDbLine
10
0.70379952616619901
20
-9.375
30
0
11
0.70379952616619901
21
-8.375
31
0
0
LINE
5
114
100
AcDbEntity
8
0
100
AcDbLine
10
0.71630000000000005
20
-1.7499999999999996
30
0
11
0.71630000000000005
21
-0.74999999999999967
31
0
0
LINE
5
115
100
AcDbEntity
8
0
100
AcDbLine
10
29.283699549445203
20
-9.3749999999999982
30
0
11
29.283699549445203
21
-8.3749999999999982
31
0
0
LINE
5
116
100
AcDbEntity
8
0
100
AcDbLine
10
29.283699549445203
20
-1.75
30
0
11
29.283699549445203
21
-0.75
31
0
0
ENDSEC
0
SECTION
2
OBJECTS
0
DICTIONARY
5
C
100
AcDbDictionary
3
ACAD_GROUP
350
D
3
ACAD_MLINESTYLE
350
17
0
DICTIONARY
5
D
100
AcDbDictionary
0
DICTIONARY
5
1A
330
C
100
AcDbDictionary
0
DICTIONARY
5
17
100
AcDbDictionary
0
ENDSEC
0
EOF
