0
SECTION
2
HEADER
9
$INSUNITS
70
4
9
$ACADVER
1
AC1014
9
$HANDSEED
5
FFFF
0
ENDSEC
0
SECTION
2
TABLES
0
TABLE
2
VPORT
5
8
100
AcDbSymbolTable
0
ENDTAB
0
TABLE
2
LTYPE
5
5
100
AcDbSymbolTable
0
LTYPE
5
14
100
AcDbSymbolTableRecord
100
AcDbLinetypeTableRecord
2
BYBLOCK
70
0
0
LTYPE
5
15
100
AcDbSymbolTableRecord
100
AcDbLinetypeTableRecord
2
BYLAYER
70
0
0
ENDTAB
0
TABLE
2
LAYER
5
2
100
AcDbSymbolTable
70
2
0
LAYER
5
50
100
AcDbSymbolTableRecord
100
AcDbLayerTableRecord
2
0
70
0
6
CONTINUOUS
0
ENDTAB
0
TABLE
2
STYLE
5
3
100
AcDbSymbolTable
70
1
0
STYLE
5
11
100
AcDbSymbolTableRecord
100
AcDbTextStyleTableRecord
2
STANDARD
70
0
0
ENDTAB
0
TABLE
2
VIEW
5
6
100
AcDbSymbolTable
70
0
0
ENDTAB
0
TABLE
2
UCS
5
7
100
AcDbSymbolTable
70
0
0
ENDTAB
0
TABLE
2
APPID
5
9
100
AcDbSymbolTable
70
2
0
APPID
5
12
100
AcDbSymbolTableRecord
100
AcDbRegAppTableRecord
2
ACAD
70
0
0
ENDTAB
0
TABLE
2
DIMSTYLE
5
A
100
AcDbSymbolTable
70
1
0
ENDTAB
0
TABLE
2
BLOCK_RECORD
5
1
100
AcDbSymbolTable
70
1
0
BLOCK_RECORD
5
1F
100
AcDbSymbolTableRecord
100
AcDbBlockTableRecord
2
*MODEL_SPACE
0
BLOCK_RECORD
5
1B
100
AcDbSymbolTableRecord
100
AcDbBlockTableRecord
2
*PAPER_SPACE
0
ENDTAB
0
ENDSEC
0
SECTION
2
BLOCKS
0
BLOCK
5
20
100
AcDbEntity
100
AcDbBlockBegin
2
*MODEL_SPACE
0
ENDBLK
5
21
100
AcDbEntity
100
AcDbBlockEnd
0
BLOCK
5
1C
100
AcDbEntity
100
AcDbBlockBegin
2
*PAPER_SPACE
0
ENDBLK
5
1D
100
AcDbEntity
100
AcDbBlockEnd
0
ENDSEC
0
SECTION
2
ENTITIES
0
LWPOLYLINE
5
100
100
AcDbEntity
8
0
100
AcDbPolyline
90
4
70
1
43
0.0
10
1193.2003363312247
20
1753.6719999999993
10
1193.2003363312247
20
1765.6719999999993
42
-0.99999999999999989
10
1201.2003363312249
20
1765.6719999999993
10
1201.2003363312249
20
1753.6719999999993
42
-0.99999999999999989
0
LINE
5
101
100
AcDbEntity
8
0
100
AcDbLine
10
1197.2003363312249
20
1765.6719999999993
30
5.6843418860808015e-13
11
1197.2003363312249
21
1753.6719999999993
31
5.6843418860808015e-13
0
LWPOLYLINE
5
102
100
AcDbEntity
8
0
100
AcDbPolyline
90
4
70
1
43
0.0
10
1195.8699608130726
20
1985.9999999999993
10
1195.8699608130726
20
1997.9999999999993
42
-0.99999999999999989
10
1203.8699608130728
20
1997.9999999999993
10
1203.8699608130728
20
1985.9999999999993
42
-0.99999999999999989
0
LINE
5
103
100
AcDbEntity
8
0
100
AcDbLine
10
1199.8699608130728
20
1997.9999999999993
30
6.8297592379222508e-13
11
1199.8699608130728
21
1985.9999999999993
31
-6.8297592379222508e-13
0
LINE
5
104
100
AcDbEntity
8
0
100
AcDbLine
10
1219.8699857814379
20
2009.0000016248521
30
0
11
1219.8699857814379
21
2009.672
31
0
0
ARC
5
105
100
AcDbEntity
8
0
100
AcDbCircle
10
1216.8699857814374
20
2009.6719999999991
30
0
40
3.0000000000003979
210
0
220
-0
230
1
100
AcDbArc
50
0
51
89.999999999995666
0
LINE
5
106
100
AcDbEntity
8
0
100
AcDbLine
10
1204.8699857814379
20
1538.6719999999993
30
0
11
1204.8699857814379
21
1520.6719999999996
31
0
0
LINE
5
107
100
AcDbEntity
8
0
100
AcDbLine
10
1204.8699857814379
20
1538.6719999999993
30
0
11
1204.8699857814379
21
1560.6719999999993
31
0
0
LINE
5
108
100
AcDbEntity
8
0
100
AcDbLine
10
1204.8699857814379
20
1538.6719999999993
30
0
11
1332.8699857814379
21
1538.6719999999993
31
0
0
ARC
5
109
100
AcDbEntity
8
0
100
AcDbCircle
10
1201.8699857814379
20
1560.6719999999993
30
0
40
3.0000000000001137
210
0
220
0
230
1
100
AcDbArc
50
0
51
89.999999999995666
0
ARC
5
110
100
AcDbEntity
8
0
100
AcDbCircle
10
1207.8699857814383
20
1520.6719999999998
30
0
40
3.0000000000003979
210
0
220
0
230
1
100
AcDbArc
50
180
51
269.9999999999913
0
LINE
5
111
100
AcDbEntity
8
0
100
AcDbLine
10
1329.8699857814379
20
1517.6719999999996
30
0
11
1207.8699857814379
21
1517.6719999999996
31
0
0
LINE
5
112
100
AcDbEntity
8
0
100
AcDbLine
10
1332.8699857814379
20
1845.6719999999996
30
0
11
1332.8699857814381
21
1520.6719999999996
31
0
0
LINE
5
113
100
AcDbEntity
8
0
100
AcDbLine
10
1201.8699857814381
20
1563.6719999999993
30
0
11
1187.8699857814379
21
1563.6719999999993
31
0
0
LINE
5
114
100
AcDbEntity
8
0
100
AcDbLine
10
1216.8699857814377
20
2012.6719999999996
30
0
11
1187.8699857814379
21
2012.6719999999996
31
0
0
LINE
5
115
100
AcDbEntity
8
0
100
AcDbLine
10
1184.8699857814379
20
2009.6719999999996
30
0
11
1184.8699857814379
21
1566.6719999999996
31
0
0
LINE
5
116
100
AcDbEntity
8
0
100
AcDbLine
10
1219.8699857814379
20
1958.6719999999993
30
0
11
1219.8699857814379
21
2009.0000016248521
31
0
0
LINE
5
117
100
AcDbEntity
8
0
100
AcDbLine
10
1329.8699857814381
20
1848.6719999999996
30
0
11
1329.8699857814379
21
1848.6719999999993
31
0
0
ARC
5
118
100
AcDbEntity
8
0
100
AcDbCircle
10
1329.8699857814377
20
1845.6719999999991
30
0
40
3.0000000000003979
210
0
220
-0
230
1
100
AcDbArc
50
0
51
89.999999999995666
0
ARC
5
119
100
AcDbEntity
8
0
100
AcDbCircle
10
1187.8699857814383
20
2009.6719999999991
30
0
40
3.0000000000003979
210
0
220
0
230
1
100
AcDbArc
50
90.000000000008683
51
180
0
ARC
5
120
100
AcDbEntity
8
0
100
AcDbCircle
10
1187.8699857814381
20
1566.6719999999996
30
0
40
3.0000000000001137
210
0
220
0
230
1
100
AcDbArc
50
180
51
269.99999999999568
0
ARC
5
121
100
AcDbEntity
8
0
100
AcDbCircle
10
1329.8699857814377
20
1520.672
30
0
40
3.0000000000006821
210
0
220
0
230
1
100
AcDbArc
50
270.00000000000432
51
360
0
LINE
5
122
100
AcDbEntity
8
0
100
AcDbLine
10
1219.8699857814379
20
1958.6719999999993
30
0
11
1219.8699857814379
21
1953.6719999999993
31
0
0
LINE
5
123
100
AcDbEntity
8
0
100
AcDbLine
10
1324.8699857814381
20
1848.6719999999996
30
0
11
1329.8699857814381
21
1848.6719999999996
31
0
0
ARC
5
124
100
AcDbEntity
8
0
100
AcDbCircle
10
1324.8699857814372
20
1953.6719999999989
30
0
40
104.99999999999929
210
0
220
0
230
1
100
AcDbArc
50
180
51
270.00000000000051
0
ENDSEC
0
SECTION
2
OBJECTS
0
DICTIONARY
5
C
100
AcDbDictionary
3
ACAD_GROUP
350
D
3
ACAD_MLINESTYLE
350
17
0
DICTIONARY
5
D
100
AcDbDictionary
0
DICTIONARY
5
1A
330
C
100
AcDbDictionary
0
DICTIONARY
5
17
100
AcDbDictionary
0
ENDSEC
0
EOF
