0
SECTION
2
HEADER
9
$INSUNITS
70
1
9
$ACADVER
1
AC1014
9
$HANDSEED
5
FFFF
0
ENDSEC
0
SECTION
2
TABLES
0
TABLE
2
VPORT
5
8
100
AcDbSymbolTable
0
ENDTAB
0
TABLE
2
LTYPE
5
5
100
AcDbSymbolTable
0
LTYPE
5
14
100
AcDbSymbolTableRecord
100
AcDbLinetypeTableRecord
2
BYBLOCK
70
0
0
LTYPE
5
15
100
AcDbSymbolTableRecord
100
AcDbLinetypeTableRecord
2
BYLAYER
70
0
0
ENDTAB
0
TABLE
2
LAYER
5
2
100
AcDbSymbolTable
70
2
0
LAYER
5
50
100
AcDbSymbolTableRecord
100
AcDbLayerTableRecord
2
0
70
0
6
CONTINUOUS
0
ENDTAB
0
TABLE
2
STYLE
5
3
100
AcDbSymbolTable
70
1
0
STYLE
5
11
100
AcDbSymbolTableRecord
100
AcDbTextStyleTableRecord
2
STANDARD
70
0
0
ENDTAB
0
TABLE
2
VIEW
5
6
100
AcDbSymbolTable
70
0
0
ENDTAB
0
TABLE
2
UCS
5
7
100
AcDbSymbolTable
70
0
0
ENDTAB
0
TABLE
2
APPID
5
9
100
AcDbSymbolTable
70
2
0
APPID
5
12
100
AcDbSymbolTableRecord
100
AcDbRegAppTableRecord
2
ACAD
70
0
0
ENDTAB
0
TABLE
2
DIMSTYLE
5
A
100
AcDbSymbolTable
70
1
0
ENDTAB
0
TABLE
2
BLOCK_RECORD
5
1
100
AcDbSymbolTable
70
1
0
BLOCK_RECORD
5
1F
100
AcDbSymbolTableRecord
100
AcDbBlockTableRecord
2
*MODEL_SPACE
0
BLOCK_RECORD
5
1B
100
AcDbSymbolTableRecord
100
AcDbBlockTableRecord
2
*PAPER_SPACE
0
ENDTAB
0
ENDSEC
0
SECTION
2
BLOCKS
0
BLOCK
5
20
100
AcDbEntity
100
AcDbBlockBegin
2
*MODEL_SPACE
0
ENDBLK
5
21
100
AcDbEntity
100
AcDbBlockEnd
0
BLOCK
5
1C
100
AcDbEntity
100
AcDbBlockBegin
2
*PAPER_SPACE
0
ENDBLK
5
1D
100
AcDbEntity
100
AcDbBlockEnd
0
ENDSEC
0
SECTION
2
ENTITIES
0
LINE
5
100
100
AcDbEntity
8
0
100
AcDbLine
10
-4.9516909314239381
20
1.5748042971767835
30
1.3427579258458588e-13
11
-4.9516875542142031
21
-1.5748021186438466
31
8.9517195056390592e-14
0
SPLINE
5
101
100
AcDbEntity
8
0
100
AcDbSpline
70
0
71
3
72
11
73
7
74
0
42
0.000000001
43
0.0000000001
44
0.0000000001
40
0
40
0
40
0
40
0
40
16.872738563573801
40
16.872738563573801
40
16.872738563573801
40
33.745477127147701
40
33.745477127147701
40
33.745477127147701
40
33.745477127147701
10
-4.9516875569505201
20
-1.5748021186438508
30
8.9517195056390592e-14
10
-4.9516874762937597
20
-1.6524046900646565
30
8.9517195056390592e-14
10
-4.9837789969899626
20
-1.7294360740378829
30
1.3427579258458588e-13
10
-5.0383342819562058
20
-1.7839993091244881
30
1.3427579258458588e-13
10
-5.0928895669224934
20
-1.8385625442110975
30
4.4758597528195302e-14
10
-5.1698949186052596
20
-1.8706655263345777
30
1.3427579258458588e-13
10
-5.2475418121780972
20
-1.8706574066559496
30
4.4758597528195302e-14
0
LINE
5
102
100
AcDbEntity
8
0
100
AcDbLine
10
-5.2475420561591148
20
-1.8706574070171935
30
8.9517195056390592e-14
11
-6.7436055078532009
21
-1.8706590108676142
31
8.9517195056390592e-14
0
SPLINE
5
103
100
AcDbEntity
8
0
100
AcDbSpline
70
0
71
3
72
11
73
7
74
0
42
0.000000001
43
0.0000000001
44
0.0000000001
40
2.4355361055335291e-08
40
2.4355361055335291e-08
40
2.4355361055335291e-08
40
2.4355361055335291e-08
40
0.5
40
0.5
40
0.5
40
1
40
1
40
1
40
1
10
-7.0394606771114505
20
-1.574804263840476
30
1.9876810210293209e-29
10
-7.039452377970842
20
-1.6523663881946706
30
8.9517195056390592e-14
10
-7.0073825762224669
20
-1.7294209186297083
30
8.9517195056390592e-14
10
-6.9528188970185001
20
-1.7839908291175959
30
8.9517195056390592e-14
10
-6.8982552151567678
20
-1.8385607422636168
30
8.9517195056390592e-14
10
-6.8211964453414735
20
-1.8706439726326853
30
1.9876810210293209e-29
10
-6.7436055078532009
20
-1.8706590102050611
30
8.9517195056390592e-14
0
LINE
5
104
100
AcDbEntity
8
0
100
AcDbLine
10
-7.039460677733528
20
-1.5748042638405473
30
4.4758597528195302e-14
11
-7.039464055669046
21
1.5748022365222738
31
1.9876810210293209e-29
0
SPLINE
5
105
100
AcDbEntity
8
0
100
AcDbSpline
70
0
71
3
72
11
73
7
74
0
42
0.000000001
43
0.0000000001
44
0.0000000001
40
0
40
0
40
0
40
0
40
0.5
40
0.5
40
0.5
40
1
40
1
40
1
40
1
10
-6.7436092947857116
20
1.8706574162781739
30
8.9517195056390592e-14
10
-6.8211709685173876
20
1.8706492929548699
30
4.4758597528195302e-14
10
-6.8982259379381503
20
1.8385795326879772
30
1.9876810210293209e-29
10
-6.9527960088481846
20
1.7840157680847357
30
4.4758597528195302e-14
10
-7.0073660797580848
20
1.7294520034814964
30
8.9517195056390592e-14
10
-7.0394492090913197
20
1.6523930365447275
30
8.9517195056390592e-14
10
-7.0394640535689721
20
1.5748022365222529
30
8.9517195056390592e-14
0
LINE
5
106
100
AcDbEntity
8
0
100
AcDbLine
10
-6.7436092947856894
20
1.8706574185739011
30
4.4758597528195302e-14
11
-5.2475461143781619
21
1.8706590223745847
31
1.9876810210293209e-29
0
SPLINE
5
107
100
AcDbEntity
8
0
100
AcDbSpline
70
0
71
3
72
11
73
7
74
0
42
0.000000001
43
0.0000000001
44
0.0000000001
40
0
40
0
40
0
40
0
40
16.872667720817201
40
16.872667720817201
40
16.872667720817201
40
33.745335441634502
40
33.745335441634502
40
33.745335441634502
40
33.745335441634502
10
-5.2475461143782738
20
1.8706590197069282
30
8.9517195056390592e-14
10
-5.1698686221998251
20
1.8706591000954029
30
8.9517195056390592e-14
10
-5.0928788526418671
20
1.8385690295918786
30
8.9517195056390592e-14
10
-5.0383268712493425
20
1.7839971725371926
30
4.4758597528195302e-14
10
-4.9837748898567726
20
1.7294253154825066
30
4.4758597528195302e-14
10
-4.9516910122113043
20
1.6523539029365946
30
8.9517195056390592e-14
10
-4.9516909341714221
20
1.5748042971770047
30
8.9517195056390592e-14
0
CIRCLE
5
108
100
AcDbEntity
8
0
100
AcDbCircle
10
-5.9992825475417941
20
1.2190000000000005
30
8.9517195056390592e-14
40
0.074750000000000066
210
0
220
0
230
1
0
CIRCLE
5
109
100
AcDbEntity
8
0
100
AcDbCircle
10
-5.9992810377484425
20
-0.18699999999837835
30
8.9517195056390592e-14
40
0.074749999999999997
210
0
220
0
230
1
0
CIRCLE
5
110
100
AcDbEntity
8
0
100
AcDbCircle
10
-6.0013620331948188
20
-0.83699666880365164
30
5.7129389775483561e-14
40
0.25
210
0
220
0
230
1
0
CIRCLE
5
111
100
AcDbEntity
8
0
100
AcDbCircle
10
-6.7467034361668272
20
-1.4381377952076402
30
5.5948246910244123e-14
40
0.074749999999999983
210
0
220
0
230
1
0
CIRCLE
5
112
100
AcDbEntity
8
0
100
AcDbCircle
10
-5.2444481773225551
20
1.4381378113348682
30
5.5948246910244123e-14
40
0.074750000000000053
210
0
220
0
230
1
0
ENDSEC
0
SECTION
2
OBJECTS
0
DICTIONARY
5
C
100
AcDbDictionary
3
ACAD_GROUP
350
D
3
ACAD_MLINESTYLE
350
17
0
DICTIONARY
5
D
100
AcDbDictionary
0
DICTIONARY
5
1A
330
C
100
AcDbDictionary
0
DICTIONARY
5
17
100
AcDbDictionary
0
ENDSEC
0
EOF
