0
SECTION
2
HEADER
9
$INSUNITS
70
1
9
$ACADVER
1
AC1014
9
$HANDSEED
5
FFFF
0
ENDSEC
0
SECTION
2
TABLES
0
TABLE
2
VPORT
5
8
100
AcDbSymbolTable
0
ENDTAB
0
TABLE
2
LTYPE
5
5
100
AcDbSymbolTable
0
LTYPE
5
14
100
AcDbSymbolTableRecord
100
AcDbLinetypeTableRecord
2
BYBLOCK
70
0
0
LTYPE
5
15
100
AcDbSymbolTableRecord
100
AcDbLinetypeTableRecord
2
BYLAYER
70
0
0
ENDTAB
0
TABLE
2
LAYER
5
2
100
AcDbSymbolTable
70
2
0
LAYER
5
50
100
AcDbSymbolTableRecord
100
AcDbLayerTableRecord
2
0
70
0
6
CONTINUOUS
0
ENDTAB
0
TABLE
2
STYLE
5
3
100
AcDbSymbolTable
70
1
0
STYLE
5
11
100
AcDbSymbolTableRecord
100
AcDbTextStyleTableRecord
2
STANDARD
70
0
0
ENDTAB
0
TABLE
2
VIEW
5
6
100
AcDbSymbolTable
70
0
0
ENDTAB
0
TABLE
2
UCS
5
7
100
AcDbSymbolTable
70
0
0
ENDTAB
0
TABLE
2
APPID
5
9
100
AcDbSymbolTable
70
2
0
APPID
5
12
100
AcDbSymbolTableRecord
100
AcDbRegAppTableRecord
2
ACAD
70
0
0
ENDTAB
0
TABLE
2
DIMSTYLE
5
A
100
AcDbSymbolTable
70
1
0
ENDTAB
0
TABLE
2
BLOCK_RECORD
5
1
100
AcDbSymbolTable
70
1
0
BLOCK_RECORD
5
1F
100
AcDbSymbolTableRecord
100
AcDbBlockTableRecord
2
*MODEL_SPACE
0
BLOCK_RECORD
5
1B
100
AcDbSymbolTableRecord
100
AcDbBlockTableRecord
2
*PAPER_SPACE
0
ENDTAB
0
ENDSEC
0
SECTION
2
BLOCKS
0
BLOCK
5
20
100
AcDbEntity
100
AcDbBlockBegin
2
*MODEL_SPACE
0
ENDBLK
5
21
100
AcDbEntity
100
AcDbBlockEnd
0
BLOCK
5
1C
100
AcDbEntity
100
AcDbBlockBegin
2
*PAPER_SPACE
0
ENDBLK
5
1D
100
AcDbEntity
100
AcDbBlockEnd
0
ENDSEC
0
SECTION
2
ENTITIES
0
LWPOLYLINE
5
100
100
AcDbEntity
8
OUTER_PROFILES
100
AcDbPolyline
90
28
70
1
43
0.0
10
-1.7432349347353788
20
5.3580709962047708
10
-2.48791668953614
20
5.35806303837479
42
0.2508704612833052
10
-2.6543698580075872
20
5.2689351773547655
10
-3.0421355324198887
20
4.6867722058417236
42
-0.25087046128314661
10
-3.1253621166555958
20
4.642208275331698
10
-5.8545098635966939
20
4.6421791110699084
10
-5.8544803713270657
20
1.8823368890917105
10
-3.1254412100781925
20
1.88236605219316
42
-0.2508406895948625
10
-3.0422198850047164
20
1.8378132244990135
10
-2.6543289632485161
20
1.2556305694634116
42
0.25084068959520434
10
-2.48788631310157
20
1.1665249140751173
10
-1.7431901430555301
20
1.1665328721063513
42
-0.26351563104949249
10
-1.3731278986964131
20
0.98040755245076727
10
-0.7174384887150318
20
-7.3168036207255133e-06
10
-0.2827433388231409
20
-2.6715574606432853e-06
10
6.9935308637805131e-16
20
-1.3987065062336408e-15
10
5.7500000000000044
20
-3.5233408491726226e-12
10
5.7499999999999947
20
1.500000000011863
10
1.6499999999999093
20
1.5000000000118825
42
-0.41421356237308771
10
0.74999999999994693
20
2.4000000000118544
10
0.74999999999997236
20
4.1246404251748965
42
-0.41421356237309509
10
1.6499999999999155
20
5.0246404251748364
10
5.7499999999999671
20
5.0246404251748702
10
5.7499999999999636
20
6.5246404251533754
10
-5.0353422219219697e-14
20
6.5246404251568624
10
-0.28274333882312447
20
6.5246377535994382
10
-0.71751193376207989
20
6.5246331075683868
10
-1.3731766684518913
20
5.5442042249268484
42
-0.26351563105022274
0
LWPOLYLINE
5
101
100
AcDbEntity
8
INTERIOR_PROFILES
100
AcDbPolyline
90
4
70
1
43
0.0
10
-2.4033312743808897
20
2.4137370244395293
10
-2.153331417727208
20
2.4140047135212388
42
-0.99999999999999989
10
-2.152762314955043
20
1.8825089552144187
10
-2.4027621716086678
20
1.8822412661326569
42
-0.99999999999999989
0
LWPOLYLINE
5
102
100
AcDbEntity
8
INTERIOR_PROFILES
100
AcDbPolyline
90
4
70
1
43
0.0
10
-2.4027916667476172
20
4.6423485056509861
42
0.99999999999999989
10
-2.4033494100943185
20
4.1108527352879491
10
-2.1533495477766107
20
4.1105903893110547
42
0.99999999999999989
10
-2.1527918043925327
20
4.6420861596596854
0
CIRCLE
5
103
100
AcDbEntity
8
INTERIOR_PROFILES
100
AcDbCircle
10
-1.2556400421999554
20
0.75000000001074807
30
0
40
0.15625000000000894
210
0
220
0
230
-1
0
CIRCLE
5
104
100
AcDbEntity
8
INTERIOR_PROFILES
100
AcDbCircle
10
-4.1718846306999744
20
5.7746404251750754
30
0
40
0.15624999999998657
210
0
220
0
230
-1
0
CIRCLE
5
105
100
AcDbEntity
8
INTERIOR_PROFILES
100
AcDbCircle
10
-4.1718846306999602
20
0.75000000001209077
30
0
40
0.15625000000000894
210
0
220
0
230
-1
0
CIRCLE
5
106
100
AcDbEntity
8
INTERIOR_PROFILES
100
AcDbCircle
10
-1.2556400421999583
20
5.774640425173744
30
0
40
0.15625000000000894
210
0
220
0
230
-1
0
LINE
5
107
100
AcDbEntity
8
BEND
100
AcDbLine
10
-0.14137166941156398
20
-1.3357787282235834e-06
30
3.4771131277957894e-15
11
-0.14137166941156365
21
6.5246390893781632
31
6.5489897812816355e-15
0
LINE
5
108
100
AcDbEntity
8
BEND
100
AcDbLine
10
-3.4631087020520188
20
1.8823624438054778
30
2.9232462856472587e-14
11
-3.4631381943216315
21
4.6422046657836633
31
2.9232652730042131e-14
0
LINE
5
109
100
AcDbEntity
8
BEND_EXTENT
100
AcDbLine
10
-5.0353422219219697e-14
20
6.5246404251568624
30
3.2548276719355131e-28
11
6.9935308637805131e-16
21
-1.3987061727561026e-15
31
0
0
LINE
5
110
100
AcDbEntity
8
BEND_EXTENT
100
AcDbLine
10
-0.2827433388231409
20
-2.6715574606432853e-06
30
1.8203240277989468e-15
11
-0.28274333882312447
21
6.5246377535994382
31
1.8203240277988422e-15
0
LINE
5
111
100
AcDbEntity
8
BEND_EXTENT
100
AcDbLine
10
-3.3217665249181372
20
4.642206176511829
30
2.1385796196701776e-14
11
-3.3217370326485312
21
1.8823639545336308
31
2.138560632313226e-14
0
LINE
5
112
100
AcDbEntity
8
BEND_EXTENT
100
AcDbLine
10
-3.6044803714555051
20
1.8823609330772935
30
4.5585229114924764e-14
11
-3.6045098637251338
21
4.6422031550554914
31
4.5585418988494428e-14
0
ENDSEC
0
SECTION
2
OBJECTS
0
DICTIONARY
5
C
100
AcDbDictionary
3
ACAD_GROUP
350
D
3
ACAD_MLINESTYLE
350
17
0
DICTIONARY
5
D
100
AcDbDictionary
0
DICTIONARY
5
1A
330
C
100
AcDbDictionary
0
DICTIONARY
5
17
100
AcDbDictionary
0
ENDSEC
0
EOF
