0
SECTION
2
HEADER
9
$INSUNITS
70
1
9
$ACADVER
1
AC1014
9
$HANDSEED
5
FFFF
0
ENDSEC
0
SECTION
2
TABLES
0
TABLE
2
VPORT
5
8
100
AcDbSymbolTable
0
ENDTAB
0
TABLE
2
LTYPE
5
5
100
AcDbSymbolTable
0
LTYPE
5
14
100
AcDbSymbolTableRecord
100
AcDbLinetypeTableRecord
2
BYBLOCK
70
0
0
LTYPE
5
15
100
AcDbSymbolTableRecord
100
AcDbLinetypeTableRecord
2
BYLAYER
70
0
0
ENDTAB
0
TABLE
2
LAYER
5
2
100
AcDbSymbolTable
70
2
0
LAYER
5
50
100
AcDbSymbolTableRecord
100
AcDbLayerTableRecord
2
0
70
0
6
CONTINUOUS
0
ENDTAB
0
TABLE
2
STYLE
5
3
100
AcDbSymbolTable
70
1
0
STYLE
5
11
100
AcDbSymbolTableRecord
100
AcDbTextStyleTableRecord
2
STANDARD
70
0
0
ENDTAB
0
TABLE
2
VIEW
5
6
100
AcDbSymbolTable
70
0
0
ENDTAB
0
TABLE
2
UCS
5
7
100
AcDbSymbolTable
70
0
0
ENDTAB
0
TABLE
2
APPID
5
9
100
AcDbSymbolTable
70
2
0
APPID
5
12
100
AcDbSymbolTableRecord
100
AcDbRegAppTableRecord
2
ACAD
70
0
0
ENDTAB
0
TABLE
2
DIMSTYLE
5
A
100
AcDbSymbolTable
70
1
0
ENDTAB
0
TABLE
2
BLOCK_RECORD
5
1
100
AcDbSymbolTable
70
1
0
BLOCK_RECORD
5
1F
100
AcDbSymbolTableRecord
100
AcDbBlockTableRecord
2
*MODEL_SPACE
0
BLOCK_RECORD
5
1B
100
AcDbSymbolTableRecord
100
AcDbBlockTableRecord
2
*PAPER_SPACE
0
ENDTAB
0
ENDSEC
0
SECTION
2
BLOCKS
0
BLOCK
5
20
100
AcDbEntity
100
AcDbBlockBegin
2
*MODEL_SPACE
0
ENDBLK
5
21
100
AcDbEntity
100
AcDbBlockEnd
0
BLOCK
5
1C
100
AcDbEntity
100
AcDbBlockBegin
2
*PAPER_SPACE
0
ENDBLK
5
1D
100
AcDbEntity
100
AcDbBlockEnd
0
ENDSEC
0
SECTION
2
ENTITIES
0
LWPOLYLINE
5
100
100
AcDbEntity
8
OUTER_PROFILES
100
AcDbPolyline
90
28
70
1
43
0.0
10
5.7500000000000107
20
1.4867812199129962
10
5.7500000000000169
20
-3.5187950541111651e-12
10
0
20
-3.4967654318902565e-16
10
-0.28274333882305591
20
-2.6715573889595939e-06
10
-0.71743848871493376
20
-7.3168035581334123e-06
10
-1.3731278986963225
20
0.98040755245082922
42
0.26351563104949
10
-1.7431901430554371
20
1.1665328721064101
10
-2.4878863131014817
20
1.1665249140751826
42
-0.25084068959519945
10
-2.6543289632484273
20
1.2556305694634706
10
-3.0422198850046072
20
1.8378132244990621
42
0.25084068959492417
10
-3.1254412100780953
20
1.8823660521932299
10
-5.8544803713268951
20
1.8823368890917322
10
-5.8545098635965092
20
4.642179111069912
10
-3.1253621166555061
20
4.6422082753317673
42
0.25087046128313301
10
-3.0421355324198012
20
4.6867722058417858
10
-2.6543698580074997
20
5.268935177354809
42
-0.25087046128330243
10
-2.4879166895360614
20
5.3580630383748398
10
-1.7432349347352822
20
5.3580709962047903
42
0.26351563105022779
10
-1.3731766684517861
20
5.544204224926899
10
-0.71751193376198608
20
6.5246331075684374
10
-0.28274333882303249
20
6.5246377535994817
10
-2.0980592591341538e-14
20
6.5246404251568375
10
5.7500000000000178
20
6.5246404251534074
10
5.7500000000000178
20
5.0114216450760107
10
1.6499999999999855
20
5.0114216450759415
42
0.41421356237309509
10
0.75000000000005929
20
4.1114216450759997
10
0.75000000000001521
20
2.3867812199129776
42
0.41421356237309492
10
1.6500000000000015
20
1.486781219913007
0
CIRCLE
5
101
100
AcDbEntity
8
INTERIOR_PROFILES
100
AcDbCircle
10
-4.1718846307000614
20
5.761421645076255
30
0
40
0.15624999999998657
210
0
220
0
230
-1
0
CIRCLE
5
102
100
AcDbEntity
8
INTERIOR_PROFILES
100
AcDbCircle
10
-3.6718846307000241
20
0.74999999999775546
30
0
40
0.15624999999999775
210
0
220
0
230
-1
0
CIRCLE
5
103
100
AcDbEntity
8
INTERIOR_PROFILES
100
AcDbCircle
10
-1.755640042200044
20
0.7499999999989253
30
0
40
0.15624999999998657
210
0
220
0
230
-1
0
LWPOLYLINE
5
104
100
AcDbEntity
8
INTERIOR_PROFILES
100
AcDbPolyline
90
4
70
1
43
0.0
10
-2.4027916667475289
20
4.642348505651035
42
0.99999999999999989
10
-2.403349410094227
20
4.1108527352879989
10
-2.1533495478077955
20
4.1105903893111604
42
0.99999999999999989
10
-2.1527918043924483
20
4.6420861596597511
0
CIRCLE
5
105
100
AcDbEntity
8
INTERIOR_PROFILES
100
AcDbCircle
10
-1.7395036171150655
20
5.7746404251558534
30
0
40
0.15624999999998657
210
0
220
0
230
-1
0
CIRCLE
5
106
100
AcDbEntity
8
INTERIOR_PROFILES
100
AcDbCircle
10
-1.2556400422000582
20
5.7614216450749103
30
0
40
0.15625000000000894
210
0
220
0
230
-1
0
LWPOLYLINE
5
107
100
AcDbEntity
8
INTERIOR_PROFILES
100
AcDbPolyline
90
4
70
1
43
0.0
10
-2.4027621716085648
20
1.8822412661327306
10
-2.1527623149549524
20
1.8825089552144596
42
0.99999999999999989
10
-2.1533314177271259
20
2.4140047135212952
10
-2.4033312743807937
20
2.4137370244396039
42
0.99999999999999989
0
CIRCLE
5
108
100
AcDbEntity
8
INTERIOR_PROFILES
100
AcDbCircle
10
-3.6718846307000201
20
5.774640425154665
30
0
40
0.15625000000000894
210
0
220
0
230
-1
0
CIRCLE
5
109
100
AcDbEntity
8
INTERIOR_PROFILES
100
AcDbCircle
10
-4.171884630700049
20
0.73678121991324519
30
0
40
0.15625000000000894
210
0
220
0
230
-1
0
CIRCLE
5
110
100
AcDbEntity
8
INTERIOR_PROFILES
100
AcDbCircle
10
-1.2556400422000575
20
0.73678121991190104
30
0
40
0.15625000000000894
210
0
220
0
230
-1
0
LINE
5
111
100
AcDbEntity
8
BEND
100
AcDbLine
10
-3.4631087020519224
20
1.8823624438055149
30
-4.7620800795360786e-13
11
-3.4631381943215356
21
4.6422046657837006
31
-4.762121224764777e-13
0
LINE
5
112
100
AcDbEntity
8
BEND
100
AcDbLine
10
-0.14137166941152063
20
-1.3357787152855513e-06
30
-4.5491640578540814e-15
11
-0.14137166941152027
21
6.5246390893781516
31
-2.8948474245043462e-15
0
LINE
5
113
100
AcDbEntity
8
BEND_EXTENT
100
AcDbLine
10
-2.1330269134530563e-14
20
6.5246404251568375
30
-2.8622606702822223e-27
11
0
21
0
31
7.9507240841172837e-29
0
LINE
5
114
100
AcDbEntity
8
BEND_EXTENT
100
AcDbLine
10
-0.28274333882305591
20
-2.6715573889595939e-06
30
-3.9446063294959687e-14
11
-0.28274333882303249
21
6.5246377535994817
31
-3.9446063294956425e-14
0
LINE
5
115
100
AcDbEntity
8
BEND_EXTENT
100
AcDbLine
10
-3.3217665249180417
20
4.6422061765118672
30
-4.6342599312302828e-13
11
-3.3217370326484281
21
1.882363954533687
31
-4.6342187860015834e-13
0
LINE
5
116
100
AcDbEntity
8
BEND_EXTENT
100
AcDbLine
10
-3.6044803714553821
20
1.8823609330773341
30
-4.8048864312877406e-13
11
-3.6045098637249962
21
4.6422031550555145
31
-4.80492757651644e-13
0
ENDSEC
0
SECTION
2
OBJECTS
0
DICTIONARY
5
C
100
AcDbDictionary
3
ACAD_GROUP
350
D
3
ACAD_MLINESTYLE
350
17
0
DICTIONARY
5
D
100
AcDbDictionary
0
DICTIONARY
5
1A
330
C
100
AcDbDictionary
0
DICTIONARY
5
17
100
AcDbDictionary
0
ENDSEC
0
EOF
