0
SECTION
2
HEADER
9
$INSUNITS
70
1
9
$ACADVER
1
AC1014
9
$HANDSEED
5
FFFF
0
ENDSEC
0
SECTION
2
TABLES
0
TABLE
2
VPORT
5
8
100
AcDbSymbolTable
0
ENDTAB
0
TABLE
2
LTYPE
5
5
100
AcDbSymbolTable
0
LTYPE
5
14
100
AcDbSymbolTableRecord
100
AcDbLinetypeTableRecord
2
BYBLOCK
70
0
0
LTYPE
5
15
100
AcDbSymbolTableRecord
100
AcDbLinetypeTableRecord
2
BYLAYER
70
0
0
ENDTAB
0
TABLE
2
LAYER
5
2
100
AcDbSymbolTable
70
2
0
LAYER
5
50
100
AcDbSymbolTableRecord
100
AcDbLayerTableRecord
2
0
70
0
6
CONTINUOUS
0
ENDTAB
0
TABLE
2
STYLE
5
3
100
AcDbSymbolTable
70
1
0
STYLE
5
11
100
AcDbSymbolTableRecord
100
AcDbTextStyleTableRecord
2
STANDARD
70
0
0
ENDTAB
0
TABLE
2
VIEW
5
6
100
AcDbSymbolTable
70
0
0
ENDTAB
0
TABLE
2
UCS
5
7
100
AcDbSymbolTable
70
0
0
ENDTAB
0
TABLE
2
APPID
5
9
100
AcDbSymbolTable
70
2
0
APPID
5
12
100
AcDbSymbolTableRecord
100
AcDbRegAppTableRecord
2
ACAD
70
0
0
ENDTAB
0
TABLE
2
DIMSTYLE
5
A
100
AcDbSymbolTable
70
1
0
ENDTAB
0
TABLE
2
BLOCK_RECORD
5
1
100
AcDbSymbolTable
70
1
0
BLOCK_RECORD
5
1F
100
AcDbSymbolTableRecord
100
AcDbBlockTableRecord
2
*MODEL_SPACE
0
BLOCK_RECORD
5
1B
100
AcDbSymbolTableRecord
100
AcDbBlockTableRecord
2
*PAPER_SPACE
0
ENDTAB
0
ENDSEC
0
SECTION
2
BLOCKS
0
BLOCK
5
20
100
AcDbEntity
100
AcDbBlockBegin
2
*MODEL_SPACE
0
ENDBLK
5
21
100
AcDbEntity
100
AcDbBlockEnd
0
BLOCK
5
1C
100
AcDbEntity
100
AcDbBlockBegin
2
*PAPER_SPACE
0
ENDBLK
5
1D
100
AcDbEntity
100
AcDbBlockEnd
0
ENDSEC
0
SECTION
2
ENTITIES
0
LWPOLYLINE
5
100
100
AcDbEntity
8
OUTER_PROFILES
100
AcDbPolyline
90
30
70
1
43
0.0
10
14.435002565983046
20
-9.7081926853814178
10
14.469952946845238
20
-9.9906914292514806
10
14.482567550131725
20
-11.740645963456348
10
13.10465059406495
20
-11.750578721949582
10
13.092035990778497
20
-10.000624187744661
10
12.884241045829114
20
-9.7193713994487325
10
8.7080779030822253
20
-4.7192511552126843
42
-0.14034525970542358
10
8.5547882607317245
20
-4.3731872147202893
10
7.9769105903988073
20
-0.21558263070353617
42
0.37431735932211141
10
7.729291034041208
20
5.988210802112064e-15
10
0
20
-1.7483827159451283e-16
10
-0.28688708756533982
20
-0.0062966693471166136
10
-2.0042241009000854
20
-0.3428283656706666
10
-2.2669019708474409
20
0.99762911150796241
10
-0.54956495751269696
20
1.3341608078315232
10
-0.26286802894588501
20
1.3414278674571178
10
0.28841187771133397
20
1.3435293237837471
42
-0.24530874571208269
10
0.49393626104768251
20
1.2372341048976765
10
0.63473475549300229
20
1.0367974246084009
42
0.61072071533198391
10
1.2956027162935118
20
1.1286534036317732
10
1.313824349583752
20
1.180801632869914
42
-0.31780062658952413
10
1.5488786067815763
20
1.3483341711042043
10
8.5428769317526285
20
1.374995005012748
42
-0.39569493589318916
10
9.2314343446063667
20
0.73383659065481877
10
9.4855157510468917
20
-3.0274190733378203
42
0.08085526969279043
10
9.512846227100999
20
-3.144773784738458
10
9.8108421658493459
20
-3.8693799159911837
42
0.084550090781833731
10
9.855354664942741
20
-3.9405573883796725
10
14.281574702481784
20
-8.9107944799632044
42
-0.1484407500832059
10
14.342495544306233
20
-9.0426407264858319
0
LWPOLYLINE
5
101
100
AcDbEntity
8
INTERIOR_PROFILES
100
AcDbPolyline
90
4
70
1
43
0.0
10
-1.5968193611605248
20
0.17821842710633337
42
-0.99999999999999989
10
-1.6929712743958454
20
0.6688861452019782
10
-0.95696969725238445
20
0.81311401505493652
42
-0.99999999999999989
10
-0.86081778401692777
20
0.32244629695859583
0
LWPOLYLINE
5
102
100
AcDbEntity
8
INTERIOR_PROFILES
100
AcDbPolyline
90
4
70
1
43
0.0
10
14.039998404617126
20
-11.243823246746384
10
14.034592146038932
20
-10.493842728362038
42
0.9999999925494194
10
13.534605136292994
20
-10.49744690445479
10
13.540011394844347
20
-11.247427419114018
42
0.99999999999999989
0
CIRCLE
5
103
100
AcDbEntity
8
INTERIOR_PROFILES
100
AcDbCircle
10
-8.545497634430772
20
0.68749999999998102
30
0
40
0.18749999999999734
210
0
220
0
230
-1
0
CIRCLE
5
104
100
AcDbEntity
8
INTERIOR_PROFILES
100
AcDbCircle
10
-9.2357420407149604
20
-4.2785394491550184
30
0
40
0.1874999999999977
210
0
220
0
230
-1
0
LINE
5
105
100
AcDbEntity
8
BEND
100
AcDbLine
10
-0.14344354378266169
20
-0.0031483346735555091
30
9.9443397669441441e-14
11
-0.40621649322927578
21
1.3377943376443164
31
3.0383352340641544e-14
0
LINE
5
106
100
AcDbEntity
8
BEND
100
AcDbLine
10
14.452477756414257
20
-9.8494420573162778
30
3.3888740527863129e-12
11
12.988138518304297
21
-9.8599977935965786
31
3.3864971990429288e-12
0
LINE
5
107
100
AcDbEntity
8
BEND_EXTENT
100
AcDbLine
10
-0.28688708756533982
20
-0.0062966693471166136
30
2.0417454344201249e-22
11
-0.54956495751269696
21
1.3341608078315232
31
3.9111963959567974e-22
0
LINE
5
108
100
AcDbEntity
8
BEND_EXTENT
100
AcDbLine
10
-0.26286802894588501
20
1.3414278674571178
30
1.8708043036930266e-22
11
0
21
-1.7483827159451283e-16
31
-3.7023444120387005e-38
0
LINE
5
109
100
AcDbEntity
8
BEND_EXTENT
100
AcDbLine
10
14.469952946845238
20
-9.9906914292514806
30
-1.0298114361409894e-20
11
13.092035990778497
21
-10.000624187744661
31
-9.3174652572849879e-21
0
LINE
5
110
100
AcDbEntity
8
BEND_EXTENT
100
AcDbLine
10
12.884241045829114
20
-9.7193713994487325
30
-9.169579765557453e-21
11
14.435002565983046
21
-9.7081926853814178
31
-1.0273240540435583e-20
0
ENDSEC
0
SECTION
2
OBJECTS
0
DICTIONARY
5
C
100
AcDbDictionary
3
ACAD_GROUP
350
D
3
ACAD_MLINESTYLE
350
17
0
DICTIONARY
5
D
100
AcDbDictionary
0
DICTIONARY
5
1A
330
C
100
AcDbDictionary
0
DICTIONARY
5
17
100
AcDbDictionary
0
ENDSEC
0
EOF
